<svg viewBox="0 0 132 132" fill="none" xmlns="http://www.w3.org/2000/svg">
<circle cx="66" cy="66" r="66" fill="#BCEA8F"/>
<path d="M50.6988 70.5106C51.3449 70.5106 52.1842 70.9402 52.4111 71.2184L63.6158 85.0853H47.4381C46.7973 85.0853 45.9464 84.6668 45.7258 84.3886L34.6682 70.5106H50.6988ZM30.7499 71.2072L43.1342 86.7512C44.0471 87.8965 45.856 88.7256 47.4381 88.7256H65.3964C67.1938 88.7256 67.8451 87.6542 68.0436 87.1932C68.4292 86.2968 68.2422 85.2423 67.5509 84.383L54.9912 68.8379C54.0667 67.6937 52.263 66.8691 50.6988 66.8691H32.9044C31.1186 66.8691 30.4662 67.936 30.2677 68.3959C29.8822 69.2923 30.0586 70.3401 30.7499 71.2072Z" fill="#141515"/>
<path d="M50.3019 71.8486C47.0527 71.8486 43.8035 71.8486 40.5543 71.8486C38.3598 71.8486 38.3598 75.4889 40.5543 75.4889C43.8035 75.4889 47.0527 75.4889 50.3019 75.4889C52.4964 75.4889 52.5016 71.8486 50.3019 71.8486Z" fill="#141515"/>
<path d="M54.3893 77.2832C51.1411 77.2832 47.8919 77.2832 44.6364 77.2832C42.4482 77.2832 42.4419 80.9235 44.6364 80.9235C47.8919 80.9235 51.1411 80.9235 54.3893 80.9235C56.5785 80.9235 56.5838 77.2832 54.3893 77.2832Z" fill="#141515"/>
<mask id="mask0_223_1018" style="mask-type:luminance" maskUnits="userSpaceOnUse" x="17" y="19" width="98" height="93">
<path d="M17 19H115V112H17V19Z" fill="white"/>
</mask>
<g mask="url(#mask0_223_1018)">
<path d="M111.581 74.1327C111.581 82.8257 104.964 89.956 96.8211 90.0166C93.782 90.0042 90.9068 88.7556 88.7008 86.4121C86.4495 84.0305 85.1627 80.7481 85.1627 77.4095V42.2921C87.9076 45.855 92.0697 48.1323 96.7129 48.1323C102.837 48.1323 108.264 44.897 111.581 39.9486V74.1327ZM100.847 37.1429V43.8492C99.6848 44.207 98.4715 44.437 97.2182 44.4796L97.4105 38.7786C98.6868 38.5127 99.8487 37.9428 100.847 37.1429ZM94.0657 22.6344C97.8023 22.6344 100.847 25.8877 100.847 29.8803C100.847 32.7701 98.732 35.1506 96.0385 35.302C94.9439 35.3626 94.0825 36.2892 94.0478 37.4526L93.8157 44.0982C88.8426 42.7161 85.1627 37.8822 85.1627 32.1452C85.1627 26.9052 89.1546 22.6344 94.0657 22.6344ZM53.7034 64.6578C55.0081 64.6578 56.6301 65.4521 57.2079 66.1667L81.0069 95.4495H47.829C46.5253 95.4495 44.8802 94.6508 44.3361 93.9597L21.1274 64.6578H53.7034ZM81.7549 99.0842V107.403C81.7549 107.929 81.3525 108.359 80.8535 108.359H43.9453C43.73 108.359 43.5146 108.274 43.3497 108.117L28.5103 94.0932C27.8412 93.4572 26.9514 93.1846 26.0721 93.3416C25.1928 93.5054 24.4333 94.0686 23.9963 94.9043L23.6906 95.4865L20.4078 91.9483V69.3897L41.734 96.3167C42.9872 97.8973 45.6061 99.091 47.829 99.091H81.6299C81.675 99.091 81.7097 99.0842 81.7549 99.0842ZM111.581 28.6081C111.581 34.4237 108.632 39.5122 104.254 42.2809V29.8803C104.254 23.8763 99.6848 18.9941 94.0657 18.9941C87.2773 18.9941 81.7549 24.8949 81.7549 32.1452V48.2781H55.048C51.9627 48.2781 49.451 45.6003 49.451 42.3044V30.2796C49.451 24.979 45.4139 20.66 40.4461 20.66H32.145C27.1783 20.66 23.1402 24.979 23.1402 30.2796V61.0175H20.5097C18.2532 61.0175 17.4643 62.2773 17.2269 62.8225C17.0903 63.1434 16.8918 63.8221 17.0956 64.6702H17V92.148C17 92.9849 17.3004 93.7724 17.8499 94.3659L21.6999 98.5155C22.3586 99.2244 23.2599 99.5576 24.1844 99.4174C25.1078 99.285 25.9019 98.7095 26.3557 97.8491L26.6846 97.2254L41.0932 110.843C41.8811 111.588 42.8959 112 43.9453 112H80.8535C83.2287 112 85.1627 109.94 85.1627 107.403V96.6802H85.1123C85.231 96.025 85.1795 95.0322 84.295 93.9418L59.7826 63.7794C58.501 62.2044 55.8926 61.0175 53.7034 61.0175H26.548V30.2796C26.548 26.9849 29.0545 24.3003 32.145 24.3003H40.4461C43.5314 24.3003 46.0431 26.9849 46.0431 30.2796V42.3044C46.0431 47.605 50.0802 51.924 55.048 51.924H81.7549V77.4095C81.7549 81.7106 83.4105 85.9331 86.2972 88.9979C89.1325 92.0033 92.8345 93.6569 96.7413 93.6569C96.776 93.6569 96.8096 93.6569 96.8442 93.6569C106.852 93.5783 114.995 84.8248 114.995 74.1327V28.6081H111.581Z" fill="#141515"/>
</g>
</svg>
