<svg viewBox="0 0 132 132" fill="none" xmlns="http://www.w3.org/2000/svg">
<circle cx="66" cy="66" r="66" fill="#BCEA8F"/>
<mask id="mask0_159_856" style="mask-type:luminance" maskUnits="userSpaceOnUse" x="18" y="18" width="96" height="96">
<path d="M18 18H114V114H18V18Z" fill="white"/>
</mask>
<g mask="url(#mask0_159_856)">
<path d="M110.636 102.135C110.636 103.71 109.281 104.988 107.618 104.988H86.183C84.521 104.988 83.1666 103.71 83.1666 102.135V74.9351C83.1666 73.36 84.521 72.0809 86.183 72.0809H107.618C109.281 72.0809 110.636 73.36 110.636 74.9351V102.135ZM37.2632 63.0587L38.8137 61.573L54.9916 76.9025L53.4301 78.3824L37.2632 63.0587ZM42.7935 88.455L26.6548 73.1627L34.8841 65.3186L51.051 80.6365L42.7935 88.455ZM38.859 92.189L22.7252 76.9025L24.2818 75.4226L40.4144 90.7091L38.859 92.189ZM53.408 53.2136C53.6311 54.1746 53.8272 54.7898 53.8615 54.8908L57.0802 53.946C57.0459 53.8554 54.1741 44.8599 57.7519 39.6994L76.8518 21.6016C77.4169 21.0654 78.4085 21.0654 78.9784 21.6016C79.5668 22.1576 79.5668 23.0653 78.9784 23.6224L72.2727 29.9761L74.6517 32.2302L77.7307 29.3076L84.1006 23.5052C84.7612 22.8958 85.8251 22.9005 86.4748 23.5156C86.7934 23.8186 86.9675 24.2213 86.9675 24.6462C86.9675 25.0756 86.7934 25.4726 86.4748 25.7755L77.9047 33.8912L80.2887 36.1453L90.533 26.4383C91.266 25.7442 92.4586 25.7442 93.1867 26.4383C93.9196 27.1336 93.9196 28.2629 93.1867 28.9582L82.9423 38.6652L85.3214 40.9193L93.8473 32.8408C94.6256 32.1037 95.98 32.1037 96.7632 32.8408C97.5697 33.6045 97.5697 34.8453 96.7632 35.6091L81.1173 50.4348L83.4963 52.6889L88.6185 47.836C88.6295 48.6415 88.5854 49.4691 88.529 49.8881C88.3439 51.1881 88.529 50.6252 87.633 51.7395C85.9207 53.8508 83.4681 55.6801 81.4813 57.5639C77.2441 61.5788 72.8659 63.0645 67.4532 60.7408C67.251 60.598 67.0218 60.4912 66.7815 60.4332C66.2888 60.1999 65.79 59.9457 65.2813 59.6485C63.4329 58.5656 61.7378 61.3246 63.5788 62.4006C63.6009 62.411 63.6242 62.4226 63.6401 62.4331C60.4496 65.4614 57.253 68.485 54.0625 71.5133L44.0817 62.0558C47.1888 59.1065 50.2947 56.1629 53.408 53.2136ZM107.618 68.8936H86.183C82.6678 68.8936 79.8021 71.6038 79.8021 74.9351V102.135C79.8021 105.45 82.6347 108.144 86.1218 108.177V109.343C86.1218 110.155 85.428 110.813 84.5713 110.813H63.5114C62.6559 110.813 61.9609 110.155 61.9609 109.343V87.5009C61.9609 84.9276 59.7559 82.8384 57.041 82.8384H53.4864L57.4099 79.1194C58.0374 78.5252 58.3782 77.7405 58.3782 76.9025C58.3782 76.0645 58.0374 75.2798 57.4099 74.6855L56.4416 73.7674C59.8956 70.4954 63.3496 67.2175 66.8036 63.9443C73.2691 66.3946 78.9625 64.4585 84.1129 59.5789C86.3068 57.5001 89.5537 55.3307 91.1937 52.8317C92.3078 51.1405 92.4476 47.4379 91.5357 45.0723L99.1423 37.8632C101.259 35.8586 101.259 32.5912 99.1423 30.5867C98.4878 29.9657 97.6935 29.5258 96.8307 29.2867C97.441 27.5526 97.0206 25.5631 95.5657 24.1842C94.0765 22.7728 91.9046 22.3909 90.0403 23.0386C89.789 22.3758 89.3907 21.7711 88.8538 21.2615C87.0901 19.5959 84.3249 19.4369 82.3601 20.7578C82.1248 20.2482 81.8 19.7654 81.3587 19.3464C80.4407 18.477 79.2138 17.9941 77.9157 17.9941C76.6116 17.9941 75.3908 18.477 74.4728 19.3464L55.2551 37.5556L55.059 37.7842C52.5794 41.2211 52.3772 45.7827 52.7473 49.331C49.0641 52.8212 45.3797 56.3115 41.6965 59.7971L41.1927 59.3189C39.9058 58.099 37.8123 58.099 36.5192 59.3189L20.3008 74.6913C19.0138 75.9112 19.0138 77.8949 20.3008 79.1194L20.8058 79.5977C20.0385 80.3243 19.2663 81.0555 18.4929 81.7821C16.9645 83.2353 19.3435 85.4952 20.8781 84.0362C21.6454 83.3096 22.4176 82.5784 23.1848 81.8518L33.1706 91.3092C32.3984 92.0358 31.6262 92.7671 30.8589 93.4995C29.3256 94.9527 31.7046 97.2068 33.238 95.7536C34.0053 95.0223 34.7775 94.2946 35.5447 93.5633L36.5192 94.4861C37.1627 95.0966 38.0133 95.3984 38.859 95.3984C39.7035 95.3984 40.5492 95.0966 41.1927 94.4861L50.1158 86.0315H57.041C57.8977 86.0315 58.5915 86.6884 58.5915 87.5009V109.343C58.5915 111.911 60.7965 114 63.5114 114H84.5713C87.2813 114 89.4924 111.911 89.4924 109.343V108.177H107.618C111.139 108.177 114 105.465 114 102.135V74.9351C114 71.6038 111.139 68.8936 107.618 68.8936Z" fill="black"/>
<path d="M106.157 88.0047C106.157 88.1684 106.011 88.3019 105.838 88.3019H87.9637C87.7897 88.3019 87.6438 88.1684 87.6438 88.0047V79.1358C87.6438 78.9709 87.7897 78.834 87.9637 78.834H105.838C106.011 78.834 106.157 78.9709 106.157 79.1358V88.0047ZM105.838 75.6455H87.9637C85.9315 75.6455 84.2805 77.2101 84.2805 79.1358V88.0047C84.2805 89.9246 85.9315 91.4892 87.9637 91.4892H105.838C107.87 91.4892 109.521 89.9246 109.521 88.0047V79.1358C109.521 77.2101 107.87 75.6455 105.838 75.6455Z" fill="black"/>
<path d="M106.157 99.917H98.5831V96.1087H106.157V99.917ZM95.2186 99.917H87.6438V96.1087H95.2186V99.917ZM106.795 92.9214H97.9445C97.5756 92.9214 97.2226 92.9899 96.9039 93.1175C96.5791 92.9899 96.231 92.9214 95.8621 92.9214H87.0065C85.5062 92.9214 84.2805 94.0775 84.2805 95.504V100.522C84.2805 101.949 85.5062 103.105 87.0065 103.105H95.8621C96.231 103.105 96.5791 103.036 96.9039 102.909C97.2226 103.036 97.5756 103.105 97.9445 103.105H106.795C108.3 103.105 109.521 101.949 109.521 100.522V95.504C109.521 94.0775 108.3 92.9214 106.795 92.9214Z" fill="black"/>
</g>
</svg>
