<svg viewBox="0 0 132 132" fill="none" xmlns="http://www.w3.org/2000/svg">
<circle cx="66" cy="66" r="66" fill="#BCEA8F"/>
<mask id="mask0_159_651" style="mask-type:luminance" maskUnits="userSpaceOnUse" x="20" y="20" width="93" height="93">
<path d="M20 20H113V113H20V20Z" fill="white"/>
</mask>
<g mask="url(#mask0_159_651)">
<path d="M113 98.1854C113.001 97.8901 112.992 97.596 112.976 97.3019C112.959 97.0078 112.933 96.7137 112.898 96.4207C112.864 96.1288 112.819 95.837 112.767 95.5474C112.715 95.2567 112.654 94.9683 112.584 94.6821C112.515 94.3959 112.436 94.112 112.35 93.8304C112.262 93.5488 112.167 93.2694 112.063 92.9935C111.96 92.7175 111.847 92.445 111.728 92.1759C111.607 91.9067 111.479 91.641 111.343 91.3798C111.206 91.1186 111.063 90.8609 110.911 90.6087C110.759 90.3555 110.6 90.108 110.433 89.8649C110.266 89.6219 110.092 89.3835 109.911 89.1507C109.731 88.9179 109.542 88.6908 109.348 88.4693C109.152 88.2479 108.951 88.0332 108.744 87.8243C108.536 87.6142 108.322 87.4121 108.102 87.2156C107.881 87.0192 107.656 86.8295 107.424 86.6467C107.192 86.465 106.956 86.289 106.714 86.1209C106.471 85.9517 106.225 85.7916 105.972 85.6372C105.721 85.4838 105.464 85.3385 105.204 85.2C104.944 85.0625 104.679 84.932 104.411 84.8104C104.142 84.6878 103.869 84.5742 103.594 84.4686C103.319 84.363 103.041 84.2654 102.76 84.1768C102.478 84.0871 102.195 84.0076 101.909 83.9349C101.622 83.8634 101.334 83.8009 101.045 83.7464C100.755 83.6919 100.464 83.6453 100.17 83.609C99.8783 83.5727 99.5838 83.5443 99.2894 83.525C98.995 83.5057 98.7006 83.4954 98.4061 83.4943C98.1106 83.4932 97.8162 83.5 97.5217 83.517C97.2273 83.5329 96.9329 83.5579 96.6407 83.592C96.3475 83.626 96.0553 83.6692 95.7654 83.7214C95.4744 83.7725 95.1857 83.8327 94.8992 83.902C94.6128 83.9712 94.3286 84.0485 94.0455 84.1348C93.7636 84.2211 93.4851 84.3165 93.2077 84.4198C92.1107 79.7423 95.2005 75.6031 98.2106 71.5809C98.9109 70.6531 99.5588 69.7798 100.101 68.977C100.515 68.408 100.898 67.8198 101.25 67.2123C101.602 66.6036 101.921 65.9779 102.206 65.3363C102.493 64.6947 102.744 64.0394 102.961 63.3706C103.179 62.7028 103.36 62.0249 103.506 61.3367C103.652 60.6497 103.761 59.9559 103.834 59.2575C103.907 58.558 103.942 57.8573 103.941 57.1544C103.941 56.4526 103.902 55.7519 103.827 55.0524C103.753 54.354 103.642 53.6613 103.494 52.9743C103.077 51.2448 102.477 49.5823 101.694 47.9845C100.91 46.3879 99.9624 44.8946 98.8506 43.5058C99.0166 43.2945 99.1632 43.0708 99.2917 42.8335C99.4201 42.5973 99.527 42.352 99.6134 42.0976C99.7009 41.8433 99.7657 41.5832 99.8089 41.3175C99.8521 41.0518 99.8726 40.7849 99.8703 40.5158C99.868 40.2466 99.8442 39.9798 99.7975 39.7152C99.7498 39.4506 99.6816 39.1917 99.5907 38.9384C99.5008 38.6852 99.3894 38.441 99.2576 38.206C99.1269 37.972 98.9757 37.7495 98.8074 37.5405C97.6911 36.1812 96.5043 34.8878 95.2459 33.6591C93.9875 32.4304 92.6655 31.2755 91.2798 30.1933C89.8929 29.1111 88.4515 28.1083 86.9544 27.1851C85.4572 26.2619 83.9135 25.4238 82.3243 24.672C80.734 23.9192 79.1084 23.256 77.4453 22.6825C75.7822 22.1102 74.093 21.6298 72.3765 21.2437C70.6599 20.8565 68.9287 20.5658 67.1803 20.3704C65.432 20.1751 63.6779 20.0763 61.9182 20.0752C60.4222 20.0843 58.9331 20.1967 57.4507 20.4113C55.9695 20.626 54.5099 20.9416 53.0719 21.3584C51.6339 21.774 50.2311 22.2873 48.8647 22.8971C47.4972 23.5069 46.1785 24.2076 44.9088 24.9991C44.761 24.8333 44.6053 24.6743 44.4416 24.5222C44.2779 24.3711 44.1074 24.228 43.9289 24.0929C43.7516 23.9578 43.5685 23.8317 43.3787 23.7148C43.1889 23.5978 42.9933 23.4899 42.7933 23.3922C42.5932 23.2934 42.3886 23.206 42.1794 23.1277C41.9702 23.0493 41.7588 22.9812 41.5428 22.9232C41.328 22.8653 41.1097 22.8188 40.8903 22.7824C40.6698 22.745 40.4481 22.72 40.2264 22.7041C40.0036 22.6893 39.7808 22.6848 39.558 22.6916C39.3352 22.6984 39.1124 22.7154 38.8919 22.7438C38.6702 22.7722 38.4508 22.8108 38.2337 22.8597C38.0154 22.9096 37.8017 22.9687 37.5891 23.0391C37.3777 23.1095 37.1697 23.1901 36.9662 23.2798C36.7627 23.3707 36.5638 23.4706 36.3694 23.5808C36.175 23.6898 35.9863 23.809 35.8044 23.9373C35.6214 24.0656 35.4452 24.2019 35.2758 24.3473C32.5305 26.7854 30.0637 29.4801 27.8789 32.4315C27.7459 32.6121 27.6231 32.7983 27.5072 32.9902C27.3923 33.1821 27.2866 33.3786 27.19 33.5807C27.0934 33.7817 27.007 33.9873 26.9297 34.1974C26.8524 34.4074 26.7842 34.6198 26.7273 34.8367C26.6694 35.0524 26.6228 35.2705 26.5852 35.4919C26.5477 35.7122 26.5216 35.9337 26.5057 36.1562C26.4886 36.3799 26.4829 36.6025 26.4875 36.8262C26.492 37.0499 26.5068 37.2737 26.5318 37.4951C26.558 37.7177 26.5932 37.938 26.6387 38.1571C26.6853 38.3752 26.741 38.5921 26.8069 38.8056C26.8728 39.0191 26.949 39.2291 27.0354 39.4358C27.1207 39.6425 27.2161 39.8446 27.3207 40.0422C27.4253 40.2398 27.539 40.4317 27.6618 40.6191C27.7845 40.8065 27.9153 40.987 28.0551 41.1619C28.1938 41.3368 28.3415 41.5049 28.4961 41.6661C28.6519 41.8274 28.8144 41.9807 28.9838 42.1272C17.8321 61.8103 17.1842 87.9038 27.489 105.807C27.6754 106.136 27.8743 106.455 28.0869 106.766C28.2995 107.077 28.5234 107.379 28.7599 107.672C28.9975 107.965 29.2453 108.248 29.5056 108.521C29.7648 108.794 30.0353 109.056 30.3161 109.307C30.5969 109.558 30.8879 109.798 31.1891 110.025C31.4893 110.253 31.7985 110.468 32.1156 110.67C32.4339 110.873 32.759 111.062 33.0932 111.238C33.4263 111.414 33.7662 111.576 34.1118 111.725C34.4585 111.874 34.8109 112.008 35.1678 112.128C35.5248 112.248 35.8863 112.354 36.2523 112.445C36.6183 112.536 36.9878 112.612 37.3595 112.672C37.7312 112.733 38.1052 112.779 38.4804 112.809C38.8566 112.84 39.2329 112.856 39.6103 112.856C39.9866 112.856 40.3629 112.841 40.7391 112.811C41.1143 112.781 41.4883 112.735 41.8611 112.674C42.2328 112.614 42.6023 112.538 42.9672 112.448C48.2475 111.091 55.7069 108.484 61.2543 103.774C61.5374 103.524 61.8091 103.264 62.0717 102.992C62.3331 102.722 62.5832 102.44 62.8219 102.149C63.0618 101.858 63.2892 101.557 63.504 101.248C63.7189 100.938 63.9212 100.62 64.111 100.295C64.2997 99.9694 64.4759 99.6367 64.6385 99.296C64.8022 98.9565 64.9511 98.6112 65.0852 98.2592C65.2205 97.9072 65.341 97.5506 65.4479 97.1895C65.5547 96.8272 65.6457 96.4627 65.723 96.0936C65.8003 95.7246 65.8628 95.3532 65.9094 94.9796C65.9571 94.606 65.989 94.2313 66.006 93.8543C66.0242 93.4784 66.0254 93.1014 66.0128 92.7255C65.9992 92.3485 65.9719 91.9726 65.9287 91.599C65.8855 91.2242 65.8276 90.8529 65.7537 90.4827C65.6809 90.1136 65.5934 89.7468 65.4911 89.3846C65.3888 89.0223 65.2717 88.6635 65.1398 88.3103C65.0091 87.9572 64.8636 87.6097 64.7056 87.2679C61.0952 79.279 57.6542 64.1643 75.0763 52.7438C75.1456 52.7029 82.1095 48.7885 88.4515 51.8887C88.8175 52.0635 89.1995 52.1873 89.5985 52.26C89.9975 52.3338 90.3988 52.3531 90.8035 52.3202C91.207 52.2861 91.6003 52.1998 91.9811 52.0613C92.362 51.9239 92.7189 51.7376 93.0508 51.5048C93.6795 52.6029 94.141 53.7681 94.4331 55.0002C94.5843 55.7633 94.6537 56.5332 94.6412 57.3099C94.6287 58.0878 94.5355 58.8555 94.3593 59.6129C94.1842 60.3704 93.9307 61.1017 93.5999 61.8046C93.2691 62.5087 92.8689 63.1696 92.3972 63.7885C91.9425 64.463 91.3923 65.1943 90.7796 66.0131C87.0646 70.9767 80.2543 80.1068 85.6618 90.7019C85.5186 90.9437 85.3822 91.1902 85.2526 91.44C85.123 91.6898 85.0003 91.9431 84.8854 92.1997C84.7706 92.4575 84.6626 92.7164 84.5626 92.9799C84.4637 93.2433 84.3705 93.509 84.2864 93.777C84.2011 94.045 84.1238 94.3164 84.0556 94.589C83.9863 94.8615 83.9249 95.1363 83.8714 95.4123C83.818 95.6882 83.7725 95.9665 83.735 96.2447C83.6975 96.524 83.668 96.8034 83.6475 97.0839C83.6259 97.3655 83.6123 97.646 83.6077 97.9276C83.602 98.2092 83.6054 98.4897 83.6168 98.7713C83.627 99.0518 83.6464 99.3335 83.6736 99.6128C83.7009 99.8933 83.7362 100.173 83.7794 100.45C83.8226 100.728 83.8737 101.005 83.9328 101.28C83.9919 101.555 84.059 101.828 84.134 102.1C84.2091 102.371 84.2909 102.64 84.3819 102.906C84.4717 103.173 84.5694 103.436 84.6751 103.698C84.7809 103.959 84.8934 104.216 85.0139 104.471C85.1344 104.725 85.2617 104.975 85.397 105.223C85.5311 105.47 85.6732 105.713 85.8221 105.952C85.9699 106.191 86.1257 106.425 86.2882 106.656C86.4508 106.885 86.619 107.11 86.7941 107.33C86.9691 107.551 87.151 107.766 87.3386 107.976C87.5262 108.187 87.7194 108.391 87.9183 108.59C88.1173 108.788 88.323 108.981 88.5333 109.168C88.7436 109.355 88.9585 109.536 89.1801 109.71C89.4007 109.885 89.6258 110.053 89.8565 110.215C90.0873 110.377 90.3226 110.531 90.5613 110.68C90.8012 110.828 91.0444 110.97 91.2923 111.104C91.5389 111.238 91.7902 111.365 92.0448 111.484C92.3006 111.605 92.5586 111.717 92.8189 111.822C93.0804 111.927 93.3453 112.025 93.6113 112.114C93.8784 112.204 94.1478 112.286 94.4195 112.36C94.6912 112.435 94.964 112.501 95.2402 112.56C95.5153 112.619 95.7927 112.669 96.0701 112.712C96.3486 112.755 96.6282 112.789 96.909 112.816C97.1887 112.842 97.4694 112.862 97.7514 112.872C98.0321 112.882 98.3141 112.884 98.596 112.879C98.8768 112.873 99.1587 112.859 99.4395 112.838C99.7202 112.816 99.9999 112.787 100.278 112.749C100.558 112.711 100.835 112.665 101.112 112.611C101.388 112.557 101.663 112.496 101.936 112.427C102.209 112.356 102.479 112.279 102.747 112.194C103.016 112.109 103.282 112.017 103.545 111.916C103.808 111.816 104.068 111.708 104.325 111.592C104.582 111.477 104.836 111.355 105.085 111.224C105.335 111.095 105.58 110.958 105.822 110.814C106.065 110.67 106.302 110.519 106.535 110.361C106.769 110.204 106.998 110.04 107.222 109.869C107.445 109.698 107.664 109.521 107.878 109.338C108.091 109.154 108.299 108.966 108.502 108.77C108.705 108.575 108.902 108.374 109.093 108.167C109.284 107.961 109.469 107.748 109.649 107.531C109.827 107.314 110 107.092 110.166 106.865C110.332 106.638 110.492 106.406 110.645 106.17C110.798 105.933 110.944 105.693 111.083 105.449C111.222 105.203 111.354 104.955 111.479 104.703C111.603 104.45 111.721 104.195 111.831 103.936C111.94 103.677 112.044 103.415 112.138 103.15C112.234 102.886 112.32 102.618 112.401 102.347C112.48 102.078 112.552 101.806 112.616 101.532C112.679 101.258 112.736 100.982 112.784 100.705C112.832 100.427 112.871 100.149 112.904 99.8695C112.936 99.5901 112.96 99.3096 112.976 99.0291C112.992 98.7475 113 98.467 113 98.1854ZM30.3548 34.2859C32.4134 31.5049 34.7359 28.9646 37.3209 26.665C37.4925 26.5174 37.6755 26.3868 37.8711 26.2732C38.0654 26.1597 38.2701 26.0643 38.4826 25.9871C38.6952 25.911 38.9123 25.8542 39.1363 25.8179C39.3591 25.7804 39.583 25.7645 39.8092 25.769C40.0355 25.7736 40.2594 25.7974 40.4811 25.8428C40.7016 25.8883 40.9176 25.953 41.1268 26.0382C41.3371 26.1222 41.5371 26.2255 41.7281 26.347C41.9179 26.4685 42.0964 26.606 42.2624 26.7593C39.9491 28.4853 37.8142 30.4079 35.8578 32.5292C33.9026 34.6493 32.1588 36.9318 30.6264 39.3768C30.4696 39.2064 30.3286 39.0247 30.2036 38.8305C30.0797 38.6364 29.9717 38.4331 29.8819 38.2196C29.7921 38.0072 29.7216 37.7881 29.6704 37.5632C29.6181 37.3384 29.5863 37.1101 29.5738 36.8796C29.5624 36.6491 29.5693 36.4197 29.5965 36.1903C29.625 35.9609 29.6716 35.7361 29.7386 35.5146C29.8046 35.2943 29.8898 35.0797 29.9933 34.8742C30.0967 34.6675 30.2172 34.4722 30.3548 34.2859ZM42.1942 109.458C41.6235 109.597 41.046 109.69 40.4606 109.735C39.8763 109.781 39.2909 109.779 38.7066 109.73C38.1211 109.681 37.5437 109.584 36.9753 109.442C36.4058 109.299 35.8522 109.112 35.3133 108.879C34.7745 108.646 34.2573 108.372 33.7639 108.056C33.2694 107.739 32.8034 107.386 32.3668 106.994C31.9303 106.602 31.5279 106.178 31.1596 105.721C30.7924 105.263 30.4639 104.781 30.174 104.27C20.3092 87.118 21.0355 61.992 31.9383 43.1594C39.4046 30.2682 50.0504 23.1685 61.9182 23.1685C64.7408 23.1719 67.5373 23.4388 70.3087 23.9691C72.0036 27.0227 73.1904 30.2625 73.869 33.6875C63.5597 34.2519 43.2855 38.9157 38.7316 66.2232C36.1443 81.7671 39.7206 95.5122 49.3308 107.127C47.0016 108.054 44.6223 108.829 42.1942 109.454V109.458ZM74.3442 49.6481C54.4531 61.3526 57.5599 79.7639 61.8784 88.5408C62.1297 89.0734 62.3354 89.6219 62.498 90.1874C62.6605 90.753 62.7765 91.3276 62.847 91.9124C62.9174 92.4961 62.9402 93.0821 62.9152 93.6692C62.8913 94.2574 62.8208 94.8388 62.7026 95.4157C62.5844 95.9914 62.4218 96.5547 62.2138 97.1054C62.0046 97.6551 61.7545 98.1854 61.4601 98.6953C61.1668 99.2051 60.8349 99.6878 60.4632 100.144C60.0914 100.601 59.6867 101.025 59.2468 101.416C57.112 103.181 54.7896 104.65 52.2818 105.827C42.8387 94.7866 39.2988 81.6444 41.7804 66.7319C45.9012 42.0102 63.3801 37.243 74.3681 36.7592C74.8887 41.0563 74.8808 45.3534 74.3442 49.6481ZM91.681 48.5659C91.5833 48.7158 91.4628 48.8441 91.3184 48.9509C91.1752 49.0576 91.0172 49.136 90.8444 49.1871C90.6727 49.2371 90.4977 49.2552 90.318 49.2427C90.1396 49.2291 89.9691 49.186 89.8065 49.1121C88.8539 48.6761 87.8706 48.3331 86.8543 48.081C85.8381 47.8301 84.8081 47.6745 83.7623 47.6143C82.7176 47.5553 81.6763 47.5927 80.6385 47.7267C79.6006 47.8607 78.5832 48.0901 77.5885 48.4138C78.565 37.7597 76.6177 30.0774 74.2419 24.8924C76.3995 25.5283 78.4991 26.3198 80.5396 27.2669C82.5801 28.2139 84.5399 29.3064 86.4178 30.543C88.2957 31.7808 90.0725 33.1503 91.7481 34.6516C93.4226 36.1528 94.9777 37.7688 96.4123 39.5005C96.5237 39.6357 96.6101 39.7844 96.6737 39.948C96.7362 40.1115 96.7726 40.2807 96.7817 40.4556C96.7897 40.6304 96.7715 40.8019 96.7249 40.9711C96.6783 41.1403 96.6066 41.297 96.51 41.4424L91.681 48.5659ZM93.2748 67.8402C93.8943 67.0079 94.4775 66.2345 94.9595 65.5191C95.5517 64.7299 96.0553 63.8861 96.468 62.989C96.8806 62.0919 97.1944 61.1607 97.4092 60.1966C97.624 59.2325 97.7355 58.257 97.7423 57.2702C97.748 56.2822 97.6513 55.3045 97.4501 54.3381C96.9909 52.419 96.219 50.635 95.1357 48.9861L96.9931 46.2368C98.6517 48.4694 99.8112 50.937 100.471 53.6386C100.594 54.2246 100.686 54.8151 100.748 55.4101C100.809 56.0052 100.839 56.6013 100.838 57.1998C100.837 57.7982 100.804 58.3944 100.739 58.9883C100.674 59.5834 100.58 60.1739 100.452 60.7576C100.326 61.3424 100.17 61.9193 99.9828 62.4871C99.7964 63.056 99.5793 63.6124 99.3337 64.1587C99.0882 64.7038 98.8154 65.2352 98.513 65.7519C98.2118 66.2686 97.8844 66.7682 97.5297 67.2509C97.0159 68.0117 96.3975 68.8384 95.7302 69.7253C92.4563 74.0928 88.431 79.4698 90.3612 85.8325C89.42 86.4355 88.5583 87.1373 87.7762 87.9367C84.4501 79.6481 89.6883 72.6301 93.2805 67.8368L93.2748 67.8402ZM98.2947 109.785C97.9151 109.785 97.5354 109.767 97.1568 109.73C96.7783 109.692 96.4032 109.637 96.0303 109.563C95.6574 109.489 95.288 109.397 94.9242 109.287C94.5605 109.176 94.2035 109.048 93.8523 108.903C93.501 108.758 93.1577 108.595 92.8223 108.416C92.487 108.238 92.1607 108.042 91.8447 107.831C91.5287 107.62 91.2241 107.394 90.9296 107.153C90.6363 106.911 90.3544 106.657 90.0862 106.388C89.8167 106.12 89.5621 105.838 89.3211 105.545C89.079 105.251 88.8528 104.947 88.6425 104.63C88.431 104.314 88.2355 103.989 88.0559 103.654C87.8774 103.318 87.7149 102.975 87.5694 102.624C87.4238 102.273 87.2954 101.917 87.1851 101.552C87.0749 101.189 86.9828 100.821 86.9089 100.449C86.8339 100.076 86.7782 99.7003 86.7418 99.3221C86.7043 98.944 86.6849 98.5658 86.6849 98.1854C86.6849 97.805 86.7043 97.4268 86.7418 97.0487C86.7782 96.6705 86.8339 96.2946 86.9089 95.9222C86.9828 95.5497 87.0749 95.1818 87.1851 94.8184C87.2954 94.4538 87.4238 94.0973 87.5694 93.7464C87.7149 93.3955 87.8774 93.0514 88.0559 92.7164C88.2355 92.3814 88.431 92.0566 88.6425 91.7409C88.8528 91.4241 89.079 91.1198 89.3211 90.8257C89.5621 90.5327 89.8167 90.251 90.0862 89.983C90.3544 89.7139 90.6363 89.4595 90.9296 89.2177C91.2241 88.9769 91.5287 88.7509 91.8447 88.5397C92.1607 88.3285 92.487 88.1332 92.8223 87.9549C93.1577 87.7755 93.501 87.6131 93.8523 87.4677C94.2035 87.3224 94.5605 87.194 94.9242 87.0839C95.288 86.9737 95.6574 86.8818 96.0303 86.8079C96.4032 86.733 96.7783 86.6774 97.1568 86.641C97.5354 86.6035 97.9151 86.5842 98.2947 86.5842C98.6744 86.5842 99.0541 86.6035 99.4326 86.641C99.8112 86.6774 100.186 86.733 100.559 86.8079C100.932 86.8818 101.3 86.9737 101.665 87.0839C102.029 87.194 102.386 87.3224 102.737 87.4677C103.088 87.6131 103.432 87.7755 103.767 87.9549C104.102 88.1332 104.429 88.3285 104.745 88.5397C105.061 88.7509 105.365 88.9769 105.66 89.2177C105.953 89.4595 106.235 89.7139 106.503 89.983C106.773 90.251 107.027 90.5327 107.268 90.8257C107.511 91.1198 107.737 91.4241 107.947 91.7409C108.158 92.0566 108.354 92.3814 108.534 92.7164C108.712 93.0514 108.875 93.3955 109.02 93.7464C109.166 94.0973 109.294 94.4538 109.404 94.8184C109.515 95.1818 109.607 95.5497 109.681 95.9222C109.756 96.2946 109.811 96.6705 109.848 97.0487C109.885 97.4268 109.905 97.805 109.905 98.1854C109.903 98.5647 109.884 98.944 109.847 99.3221C109.809 99.7003 109.753 100.075 109.679 100.447C109.604 100.82 109.512 101.188 109.401 101.551C109.291 101.915 109.162 102.272 109.017 102.623C108.871 102.974 108.709 103.316 108.529 103.651C108.351 103.986 108.155 104.312 107.944 104.628C107.732 104.943 107.506 105.248 107.265 105.542C107.024 105.835 106.769 106.116 106.5 106.384C106.232 106.653 105.95 106.908 105.656 107.149C105.362 107.39 105.057 107.616 104.741 107.827C104.425 108.038 104.1 108.233 103.765 108.412C103.43 108.592 103.086 108.754 102.735 108.9C102.385 109.045 102.027 109.173 101.663 109.283C101.299 109.394 100.932 109.487 100.559 109.561C100.186 109.636 99.8101 109.691 99.4326 109.729C99.0541 109.766 98.6744 109.785 98.2947 109.785Z" fill="#141515"/>
<path d="M98.5281 91.7021C98.3067 91.7021 98.0864 91.7121 97.866 91.7341C97.6468 91.7561 97.4275 91.788 97.2116 91.8309C96.9946 91.8749 96.7797 91.9277 96.5682 91.9927C96.3567 92.0565 96.1484 92.1302 95.9446 92.2149C95.7408 92.2997 95.5403 92.3943 95.3453 92.4977C95.1503 92.6023 94.9619 92.7156 94.7779 92.8388C94.5939 92.961 94.4166 93.093 94.2458 93.2328C94.075 93.3725 93.9109 93.5211 93.7544 93.6773C93.598 93.8336 93.4504 93.9965 93.3093 94.1681C93.1694 94.3387 93.0383 94.5158 92.9149 94.6996C92.7926 94.8834 92.6792 95.0726 92.5745 95.2674C92.4698 95.4622 92.3762 95.6613 92.2914 95.8649C92.2065 96.0696 92.1327 96.2776 92.0677 96.4888C92.0038 96.7001 91.9498 96.9136 91.9069 97.1304C91.8639 97.3471 91.8319 97.565 91.8099 97.7851C91.7879 98.0052 91.7769 98.2252 91.7769 98.4464C91.7769 98.6676 91.7879 98.8877 91.8099 99.1078C91.8319 99.3278 91.8639 99.5457 91.9069 99.7625C91.9498 99.9793 92.0038 100.193 92.0677 100.404C92.1327 100.615 92.2065 100.823 92.2914 101.028C92.3762 101.232 92.4698 101.431 92.5745 101.625C92.6792 101.82 92.7926 102.009 92.9149 102.193C93.0383 102.377 93.1694 102.554 93.3093 102.725C93.4504 102.896 93.598 103.059 93.7544 103.216C93.9109 103.372 94.075 103.52 94.2458 103.66C94.4166 103.8 94.5939 103.932 94.7779 104.054C94.9619 104.177 95.1503 104.291 95.3453 104.395C95.5403 104.499 95.7408 104.593 95.9446 104.678C96.1484 104.763 96.3567 104.836 96.5682 104.9C96.7797 104.965 96.9946 105.018 97.2116 105.061C97.4275 105.105 97.6468 105.137 97.866 105.159C98.0864 105.18 98.3067 105.191 98.5281 105.191C98.7496 105.191 98.9699 105.18 99.1903 105.159C99.4095 105.137 99.6287 105.105 99.8447 105.061C100.062 105.018 100.277 104.965 100.488 104.9C100.7 104.836 100.907 104.763 101.112 104.678C101.315 104.593 101.515 104.499 101.71 104.395C101.905 104.291 102.094 104.177 102.278 104.054C102.462 103.932 102.64 103.8 102.81 103.66C102.981 103.52 103.145 103.372 103.302 103.216C103.458 103.059 103.606 102.896 103.747 102.725C103.887 102.554 104.018 102.377 104.141 102.193C104.264 102.009 104.377 101.82 104.482 101.625C104.586 101.431 104.68 101.232 104.765 101.028C104.85 100.823 104.924 100.615 104.989 100.404C105.052 100.193 105.106 99.9793 105.149 99.7625C105.192 99.5457 105.224 99.3278 105.246 99.1078C105.268 98.8877 105.279 98.6676 105.279 98.4464C105.278 98.2252 105.267 98.0052 105.245 97.7851C105.224 97.5661 105.191 97.3471 105.148 97.1315C105.104 96.9147 105.051 96.7001 104.986 96.4888C104.922 96.2776 104.848 96.0707 104.763 95.866C104.678 95.6624 104.584 95.4633 104.48 95.2685C104.375 95.0737 104.261 94.8845 104.139 94.7007C104.016 94.5169 103.885 94.3409 103.745 94.1692C103.604 93.9987 103.456 93.8358 103.3 93.6795C103.143 93.5233 102.98 93.3747 102.808 93.235C102.638 93.0952 102.46 92.9632 102.277 92.841C102.093 92.7178 101.904 92.6045 101.709 92.4999C101.514 92.3965 101.314 92.3019 101.111 92.2171C100.907 92.1324 100.699 92.0576 100.487 91.9938C100.275 91.9299 100.062 91.876 99.8447 91.8331C99.6276 91.7891 99.4095 91.7572 99.1892 91.7352C98.9699 91.7132 98.7496 91.7021 98.5281 91.7021ZM98.5281 102.193C98.2814 102.193 98.0379 102.169 97.7966 102.122C97.5553 102.073 97.3207 102.002 97.0926 101.908C96.8657 101.814 96.6497 101.698 96.4448 101.562C96.2399 101.425 96.0504 101.27 95.8763 101.096C95.7023 100.922 95.5469 100.733 95.4092 100.528C95.2726 100.324 95.1569 100.108 95.0633 99.8802C94.9685 99.6524 94.898 99.4192 94.8495 99.1771C94.8022 98.9361 94.7779 98.6929 94.7779 98.4464C94.7779 98.1999 94.8022 97.9568 94.8495 97.7158C94.898 97.4737 94.9685 97.2393 95.0633 97.0126C95.1569 96.7848 95.2726 96.5692 95.4092 96.3645C95.5469 96.1598 95.7023 95.9706 95.8763 95.7967C96.0504 95.6228 96.2399 95.4677 96.4448 95.3312C96.6497 95.1937 96.8657 95.0792 97.0926 94.9846C97.3207 94.89 97.5553 94.8195 97.7966 94.7711C98.0379 94.7238 98.2814 94.6996 98.5281 94.6996C98.7738 94.6996 99.0184 94.7238 99.2597 94.7711C99.5009 94.8195 99.7356 94.89 99.9637 94.9846C100.191 95.0792 100.407 95.1937 100.611 95.3312C100.816 95.4677 101.006 95.6228 101.18 95.7967C101.354 95.9706 101.509 96.1598 101.646 96.3645C101.784 96.5692 101.898 96.7848 101.993 97.0126C102.088 97.2393 102.158 97.4737 102.207 97.7158C102.254 97.9568 102.278 98.1999 102.278 98.4464C102.278 98.6929 102.254 98.9361 102.207 99.1771C102.158 99.4192 102.088 99.6524 101.993 99.8802C101.898 100.108 101.784 100.324 101.646 100.528C101.509 100.733 101.354 100.922 101.18 101.096C101.006 101.27 100.816 101.425 100.611 101.562C100.407 101.698 100.191 101.814 99.9637 101.908C99.7356 102.002 99.5009 102.073 99.2597 102.122C99.0184 102.169 98.7738 102.193 98.5281 102.193Z" fill="#141515"/>
</g>
</svg>
