<svg viewBox="0 0 132 132" fill="none" xmlns="http://www.w3.org/2000/svg">
<circle cx="66" cy="66" r="66" fill="#BCEA8F"/>
<path d="M78.6013 24.771C78.4976 24.8087 78.4 24.855 78.3061 24.9111C78.2122 24.9683 78.1256 25.0329 78.0451 25.1072C77.9633 25.1803 77.8914 25.2619 77.8267 25.3496C77.7609 25.4373 77.706 25.5312 77.6596 25.6298C77.6133 25.7285 77.5767 25.8308 77.5511 25.9368C77.5242 26.0428 77.5096 26.1512 77.5047 26.2597C77.4998 26.3693 77.5047 26.4777 77.5218 26.5861C77.5377 26.6933 77.5657 26.7993 77.6023 26.9017C78.6903 29.8997 79.8344 32.7882 80.1796 36.3271C80.1906 36.4356 80.2113 36.5428 80.2431 36.6463C80.2748 36.7511 80.3162 36.8522 80.3675 36.9484C80.4187 37.0447 80.4797 37.1348 80.5492 37.2189C80.6175 37.3042 80.6944 37.3809 80.7798 37.4504C80.8639 37.5198 80.9542 37.5795 81.0505 37.6319C81.1469 37.683 81.2469 37.7245 81.3518 37.7574C81.4567 37.789 81.5628 37.8097 81.6726 37.8207C81.7812 37.8317 81.8897 37.8329 81.9983 37.8219C82.1081 37.811 82.2142 37.7902 82.3191 37.7598C82.424 37.7281 82.5252 37.6867 82.6216 37.6355C82.7179 37.5844 82.8082 37.5235 82.8936 37.4552C82.9777 37.3858 83.0558 37.309 83.1253 37.225C83.1949 37.1409 83.2558 37.0508 83.3071 36.9545C83.3595 36.8583 83.401 36.7584 83.4327 36.6536C83.4656 36.5501 83.4864 36.4429 83.4986 36.3345C83.5096 36.226 83.5096 36.1176 83.4998 36.0092C83.1009 32.0012 81.869 28.8923 80.7358 25.7675C80.6992 25.6652 80.6517 25.5677 80.5956 25.4739C80.5382 25.3813 80.4736 25.2936 80.3992 25.2132C80.3248 25.1328 80.2443 25.0597 80.1565 24.9951C80.0674 24.9306 79.9747 24.8757 79.8747 24.8294C79.7759 24.7832 79.6734 24.7466 79.5673 24.721C79.4612 24.6942 79.3539 24.6784 79.2441 24.6735C79.1343 24.6686 79.0258 24.6747 78.9172 24.6906C78.8099 24.7076 78.7037 24.7344 78.6013 24.771Z" fill="#141515"/>
<mask id="mask0_159_452" style="mask-type:luminance" maskUnits="userSpaceOnUse" x="16" y="16" width="100" height="100">
<path d="M16 16H116V116H16V16Z" fill="white"/>
</mask>
<g mask="url(#mask0_159_452)">
<path d="M109.332 55.6096V36.1775C109.332 36.0119 109.074 19.5828 86.8102 19.0333C85.0464 18.9773 83.3046 18.7507 81.5835 18.3548C79.8637 17.9576 78.1987 17.3985 76.5887 16.6773C73.0928 14.962 68.6932 18.1355 69.3726 21.9985C69.7898 24.9832 70.7095 27.4745 71.5987 29.8854C73.1319 34.042 74.4578 37.6333 72.9428 42.9875C71.9036 46.6568 71.4133 53.1074 74.9786 62.9885C75.9751 65.978 79.7832 67.3826 82.4678 65.7015C87.2017 62.8922 95.3789 56.9789 96.9609 48.8935C97.1488 47.713 97.8879 46.7616 99.3321 45.8296V55.6096C98.8369 55.8447 98.36 56.1127 97.9026 56.4136C97.4452 56.7158 97.0109 57.0483 96.5999 57.4114C96.1888 57.7732 95.8058 58.163 95.4509 58.5797C95.0947 58.9963 94.7703 59.4361 94.4763 59.899C94.1836 60.3607 93.9237 60.8419 93.6981 61.3402C93.4724 61.8397 93.2834 62.3513 93.1297 62.8764C92.9772 63.4027 92.8613 63.9362 92.7833 64.4771C92.7052 65.0193 92.6662 65.5638 92.665 66.1108V86.0667C92.6662 86.6137 92.7052 87.1582 92.7833 87.7003C92.8613 88.2412 92.9772 88.776 93.1297 89.3011C93.2834 89.8262 93.4724 90.339 93.6981 90.8373C93.9237 91.3368 94.1836 91.8168 94.4775 92.2797C94.7703 92.7414 95.0947 93.1812 95.4509 93.5978C95.8058 94.0145 96.1888 94.4043 96.5999 94.7673C97.0109 95.1291 97.4452 95.4617 97.9026 95.7638C98.36 96.0647 98.8369 96.3328 99.3321 96.5679V104.36C99.3321 104.468 99.3211 104.577 99.2992 104.684C99.2785 104.791 99.2467 104.895 99.204 104.996C99.1626 105.096 99.1113 105.192 99.0504 105.283C98.9894 105.373 98.9211 105.457 98.843 105.534C98.7662 105.612 98.682 105.68 98.5905 105.741C98.5003 105.802 98.4039 105.853 98.3027 105.895C98.2014 105.937 98.0977 105.969 97.9904 105.99C97.8831 106.012 97.7745 106.021 97.6659 106.023H87.6652V96.0513C87.6994 88.3009 84.5902 80.9184 78.9135 75.2658C78.1902 74.5458 77.4339 73.8636 76.6435 73.2168C75.8544 72.5711 75.0347 71.9644 74.1845 71.3979C73.3356 70.8327 72.461 70.3088 71.5608 69.8276C70.6607 69.3464 69.7385 68.9091 68.7957 68.518C67.8528 68.127 66.8929 67.781 65.9158 67.4837C64.94 67.1853 63.9508 66.9355 62.9494 66.7333C61.948 66.5311 60.9393 66.3776 59.9232 66.274C58.9072 66.1705 57.8887 66.1157 56.8677 66.1108H21.001C20.8375 66.1108 20.6741 66.1193 20.5119 66.1352C20.3484 66.1522 20.1874 66.1754 20.0264 66.2083C19.8654 66.2399 19.7068 66.2801 19.5507 66.3276C19.3946 66.3751 19.2397 66.43 19.0884 66.4921C18.9372 66.5555 18.7896 66.6249 18.6456 66.7016C18.5017 66.7784 18.3614 66.8624 18.2248 66.9538C18.0894 67.044 17.9577 67.1414 17.8308 67.245C17.704 67.3485 17.5832 67.4582 17.4674 67.5739C17.3515 67.6896 17.2417 67.8102 17.138 67.9369C17.0343 68.0624 16.9368 68.194 16.8453 68.3292C16.755 68.4656 16.6709 68.6057 16.594 68.7495C16.516 68.8932 16.4464 69.0406 16.3842 69.1917C16.3208 69.3428 16.2659 69.4963 16.2183 69.6522C16.1708 69.8081 16.1305 69.9665 16.0988 70.1273C16.0659 70.2869 16.0427 70.4489 16.0256 70.611C16.0098 70.7742 16.0012 70.9362 16.0012 71.0995V111.011C16.0012 111.175 16.0098 111.338 16.0256 111.5C16.0427 111.662 16.0659 111.824 16.0988 111.983C16.1305 112.144 16.1708 112.303 16.2183 112.459C16.2659 112.614 16.3208 112.768 16.3842 112.919C16.4464 113.07 16.516 113.217 16.594 113.361C16.6709 113.505 16.755 113.645 16.8453 113.782C16.9368 113.917 17.0343 114.048 17.138 114.174C17.2417 114.3 17.3515 114.421 17.4674 114.537C17.5832 114.653 17.704 114.762 17.8308 114.866C17.9577 114.969 18.0894 115.067 18.2248 115.157C18.3614 115.248 18.5017 115.332 18.6456 115.409C18.7896 115.486 18.9372 115.557 19.0884 115.619C19.2397 115.681 19.3946 115.737 19.5507 115.784C19.7068 115.832 19.8654 115.871 20.0264 115.902C20.1874 115.935 20.3484 115.959 20.5119 115.976C20.6741 115.991 20.8375 116 21.001 116H97.6659C98.0477 116 98.4283 115.98 98.8088 115.943C99.1882 115.905 99.5663 115.849 99.9408 115.773C100.315 115.699 100.685 115.606 101.051 115.496C101.415 115.385 101.775 115.256 102.128 115.111C102.48 114.964 102.825 114.801 103.162 114.621C103.499 114.442 103.826 114.246 104.144 114.034C104.461 113.822 104.767 113.595 105.063 113.354C105.358 113.112 105.641 112.856 105.91 112.586C106.181 112.317 106.437 112.035 106.68 111.74C106.921 111.446 107.149 111.14 107.362 110.824C107.574 110.507 107.77 110.18 107.95 109.844C108.13 109.508 108.294 109.163 108.44 108.811C108.586 108.46 108.716 108.101 108.827 107.737C108.938 107.372 109.03 107.003 109.105 106.629C109.18 106.255 109.236 105.879 109.274 105.5C109.312 105.12 109.332 104.74 109.332 104.36V96.5679C109.827 96.3328 110.304 96.0647 110.761 95.7638C111.219 95.4617 111.653 95.1291 112.064 94.7673C112.475 94.4043 112.858 94.0145 113.213 93.5978C113.569 93.1812 113.894 92.7414 114.186 92.2797C114.48 91.8168 114.74 91.3368 114.966 90.8373C115.191 90.339 115.38 89.8262 115.534 89.3011C115.687 88.776 115.802 88.2425 115.88 87.7003C115.957 87.1582 115.998 86.6137 115.998 86.0667V66.1108C115.998 65.5638 115.957 65.0193 115.88 64.4771C115.802 63.9362 115.687 63.4027 115.534 62.8764C115.38 62.3513 115.191 61.8397 114.966 61.3402C114.74 60.8419 114.48 60.3607 114.186 59.899C113.894 59.4361 113.569 58.9963 113.213 58.5797C112.858 58.163 112.475 57.7732 112.064 57.4114C111.653 57.0483 111.219 56.7158 110.761 56.4149C110.304 56.1127 109.827 55.8447 109.332 55.6096ZM97.5354 43.0204C95.274 44.4908 94.0091 46.2414 93.6798 48.3136C92.3076 55.3233 84.1889 60.8103 80.7626 62.8435C79.8015 63.4502 78.472 62.9239 78.1158 61.8616C75.5677 54.8007 74.8688 48.4184 76.1508 43.8902C77.9597 37.4993 76.3167 33.0442 74.7273 28.7354C73.8979 26.4901 73.0428 24.1706 72.6733 21.5392C72.5915 19.8337 73.9857 19.2404 75.214 19.7082C77.0278 20.522 78.9037 21.1506 80.8407 21.5977C82.7789 22.0436 84.7402 22.297 86.7284 22.3591C105.654 22.8257 105.993 35.6403 105.998 36.1775V54.6033C104.887 54.4304 103.776 54.4304 102.666 54.6033V45.8296C102.751 43.2908 99.6322 41.5609 97.5354 43.0204ZM19.3348 71.0995C19.3348 70.991 19.3458 70.8826 19.3665 70.7754C19.3885 70.6682 19.4202 70.5647 19.4617 70.4635C19.5043 70.3637 19.5556 70.2674 19.6166 70.176C19.6763 70.0859 19.7459 70.0018 19.8239 69.9251C19.9008 69.8471 19.9849 69.7789 20.0764 69.718C20.1667 69.6571 20.263 69.6059 20.3643 69.5645C20.4643 69.5219 20.5692 69.4902 20.6765 69.4695C20.7839 69.4475 20.8924 69.4378 21.001 69.4366H56.7018C57.6203 69.4402 58.5364 69.489 59.4512 69.5803C60.3648 69.6729 61.2723 69.8094 62.1724 69.9897C63.0738 70.1687 63.963 70.3917 64.8425 70.6585C65.7219 70.9253 66.5855 71.2323 67.4356 71.5831C68.2846 71.9327 69.114 72.3226 69.9252 72.7526C70.7363 73.1826 71.5255 73.6517 72.2915 74.1585C73.0563 74.664 73.7954 75.2074 74.509 75.7848C75.2213 76.3635 75.9056 76.9738 76.5582 77.6182C81.3811 82.4217 84.0865 88.6152 84.2914 95.1486C78.0987 93.6356 73.1563 92.2626 68.9994 86.7318C68.1212 85.5611 67.1149 84.1005 66.0659 82.5752C63.8618 79.3737 61.5845 76.065 59.6732 74.1926C59.2048 73.7321 58.6669 73.3788 58.0594 73.1315C57.4508 72.8842 56.8189 72.7611 56.1615 72.7636H19.3348V71.0995ZM19.3348 84.4038H26.0007V87.7296H19.3348V84.4038ZM84.3328 101.033H75.9995C75.8897 101.033 75.7812 101.044 75.6738 101.066C75.5665 101.086 75.4628 101.118 75.3616 101.159C75.2603 101.202 75.164 101.253 75.0737 101.313C74.9822 101.374 74.8981 101.443 74.8212 101.52C74.7432 101.598 74.6749 101.682 74.6139 101.772C74.5529 101.864 74.5017 101.959 74.4602 102.06C74.4175 102.161 74.3858 102.264 74.3651 102.372C74.3431 102.479 74.3333 102.587 74.3333 102.696C74.3333 102.805 74.3431 102.914 74.3651 103.021C74.3858 103.128 74.4175 103.232 74.4602 103.333C74.5017 103.434 74.5529 103.529 74.6139 103.62C74.6749 103.71 74.7432 103.794 74.8212 103.872C74.8981 103.949 74.9822 104.019 75.0737 104.078C75.164 104.139 75.2603 104.19 75.3616 104.233C75.4628 104.274 75.5665 104.306 75.6738 104.327C75.7812 104.349 75.8897 104.36 75.9995 104.36H84.3328V111.011C84.3328 111.12 84.3219 111.228 84.2999 111.335C84.2792 111.443 84.2475 111.546 84.2048 111.647C84.1633 111.748 84.1121 111.843 84.0511 111.935C83.9901 112.025 83.9218 112.109 83.8437 112.187C83.7669 112.264 83.6827 112.333 83.5912 112.393C83.501 112.454 83.4046 112.505 83.3034 112.547C83.2021 112.589 83.0985 112.621 82.9911 112.641C82.8838 112.663 82.7752 112.674 82.6655 112.674H21.001C20.8924 112.674 20.7839 112.663 20.6765 112.641C20.5692 112.621 20.4643 112.589 20.3643 112.547C20.263 112.505 20.1667 112.454 20.0764 112.393C19.9849 112.333 19.9008 112.264 19.8239 112.187C19.7459 112.109 19.6763 112.025 19.6166 111.935C19.5556 111.843 19.5043 111.748 19.4617 111.647C19.4202 111.546 19.3885 111.443 19.3665 111.335C19.3458 111.228 19.3348 111.12 19.3348 111.011V104.36H27.6681C27.7767 104.36 27.8852 104.349 27.9926 104.327C28.0999 104.306 28.2048 104.274 28.3061 104.233C28.4061 104.19 28.5024 104.139 28.5939 104.078C28.6842 104.019 28.7683 103.949 28.8464 103.872C28.9233 103.794 28.9928 103.71 29.0538 103.62C29.1148 103.529 29.166 103.434 29.2075 103.333C29.2489 103.232 29.2806 103.128 29.3026 103.021C29.3233 102.914 29.3343 102.805 29.3343 102.696C29.3343 102.587 29.3233 102.479 29.3026 102.372C29.2806 102.264 29.2489 102.161 29.2075 102.06C29.166 101.959 29.1148 101.864 29.0538 101.772C28.9928 101.682 28.9233 101.598 28.8464 101.52C28.7683 101.443 28.6842 101.374 28.5939 101.313C28.5024 101.253 28.4061 101.202 28.3061 101.159C28.2048 101.118 28.0999 101.086 27.9926 101.066C27.8852 101.044 27.7767 101.033 27.6681 101.033H19.3348V97.7069H27.6681C27.7767 97.7069 27.8852 97.6972 27.9926 97.6753C28.0999 97.6545 28.2048 97.6229 28.3061 97.5802C28.4061 97.5388 28.5024 97.4876 28.5939 97.4267C28.6842 97.3658 28.7683 97.2976 28.8464 97.2196C28.9233 97.1429 28.9928 97.0588 29.0538 96.9687C29.1148 96.8773 29.166 96.7811 29.2075 96.6812C29.2489 96.5801 29.2806 96.4753 29.3026 96.3693C29.3233 96.2621 29.3343 96.1537 29.3343 96.044C29.3343 95.9356 29.3233 95.8272 29.3026 95.72C29.2806 95.6128 29.2489 95.5092 29.2075 95.4081C29.166 95.307 29.1148 95.2108 29.0538 95.1206C28.9928 95.0293 28.9233 94.9452 28.8464 94.8684C28.7683 94.7917 28.6842 94.7223 28.5939 94.6613C28.5024 94.6004 28.4061 94.5493 28.3061 94.5078C28.2048 94.4664 28.0999 94.4347 27.9926 94.4128C27.8852 94.3921 27.7767 94.3811 27.6681 94.3811H19.3348V91.0554H26.0007C26.2203 91.0554 26.4362 91.0334 26.6509 90.9908C26.8655 90.9482 27.0741 90.8848 27.2766 90.8008C27.4779 90.7179 27.6706 90.6156 27.8523 90.4938C28.0341 90.3719 28.2024 90.2343 28.3573 90.0808C28.5122 89.9261 28.65 89.7579 28.772 89.5764C28.8928 89.3949 28.9952 89.2037 29.0794 89.0014C29.1635 88.8004 29.227 88.5921 29.2697 88.3777C29.3124 88.1645 29.3343 87.9476 29.3343 87.7296V84.4038C29.3343 84.1857 29.3124 83.9689 29.2697 83.7545C29.227 83.5413 29.1635 83.333 29.0794 83.132C28.9952 82.9297 28.8928 82.7385 28.772 82.557C28.65 82.3754 28.5122 82.2073 28.3573 82.0526C28.2024 81.8991 28.0341 81.7602 27.8523 81.6396C27.6706 81.5178 27.4779 81.4155 27.2766 81.3314C27.0741 81.2486 26.8655 81.1852 26.6509 81.1426C26.4362 81.1 26.2203 81.078 26.0007 81.078H19.3348V76.0894H56.1615C56.3823 76.0881 56.5933 76.1283 56.797 76.2112C57.0007 76.294 57.1812 76.4134 57.3386 76.5669C59.0182 78.214 61.3027 81.5312 63.3166 84.4574C64.396 86.0253 65.4292 87.5249 66.333 88.7273C71.395 95.4617 77.6742 96.9626 84.3328 98.5816V101.033ZM105.998 104.36C105.998 104.631 105.985 104.903 105.958 105.173C105.931 105.445 105.891 105.713 105.837 105.981C105.783 106.248 105.716 106.511 105.637 106.772C105.558 107.033 105.466 107.288 105.361 107.539C105.256 107.791 105.141 108.036 105.011 108.276C104.883 108.516 104.743 108.75 104.59 108.977C104.439 109.202 104.277 109.421 104.104 109.631C103.931 109.842 103.748 110.043 103.555 110.235C103.362 110.428 103.16 110.61 102.949 110.783C102.739 110.956 102.519 111.118 102.292 111.27C102.066 111.421 101.833 111.561 101.591 111.69C101.351 111.818 101.104 111.933 100.853 112.038C100.601 112.143 100.345 112.234 100.083 112.314C99.8225 112.393 99.5578 112.46 99.2906 112.512C99.0223 112.566 98.7527 112.606 98.482 112.633C98.2099 112.66 97.9379 112.674 97.6659 112.674H87.359C87.5579 112.137 87.6603 111.583 87.6652 111.011V109.348H97.6659C97.8294 109.348 97.9928 109.34 98.1551 109.324C98.3185 109.307 98.4795 109.283 98.6405 109.251C98.8003 109.219 98.9589 109.179 99.1162 109.132C99.2724 109.084 99.426 109.029 99.5773 108.967C99.7285 108.904 99.8773 108.834 100.021 108.758C100.165 108.681 100.305 108.597 100.442 108.505C100.577 108.415 100.709 108.318 100.836 108.214C100.962 108.111 101.084 108.001 101.2 107.885C101.315 107.77 101.425 107.649 101.529 107.522C101.633 107.397 101.73 107.265 101.82 107.13C101.912 106.994 101.996 106.853 102.073 106.71C102.151 106.566 102.22 106.419 102.283 106.267C102.346 106.116 102.401 105.963 102.449 105.807C102.496 105.65 102.536 105.493 102.568 105.332C102.6 105.172 102.624 105.01 102.64 104.848C102.657 104.685 102.664 104.523 102.666 104.36V97.5741C103.776 97.7483 104.887 97.7483 105.998 97.5741V104.36ZM112.665 86.0667C112.665 86.3384 112.652 86.61 112.625 86.8817C112.598 87.1521 112.558 87.4214 112.504 87.6882C112.452 87.9562 112.385 88.2193 112.307 88.48C112.227 88.7407 112.135 88.9966 112.031 89.2487C111.926 89.4997 111.809 89.7458 111.681 89.9858C111.553 90.2257 111.413 90.4596 111.26 90.6862C111.109 90.9128 110.947 91.1309 110.773 91.3417C110.6 91.5524 110.417 91.7534 110.224 91.9459C110.031 92.1384 109.829 92.3211 109.618 92.4941C109.407 92.6671 109.188 92.8291 108.961 92.9802C108.734 93.1312 108.501 93.2713 108.259 93.3992C108.019 93.5284 107.773 93.6441 107.52 93.7489C107.269 93.8524 107.012 93.9438 106.751 94.023C106.49 94.1022 106.225 94.168 105.958 94.2216C105.689 94.2752 105.42 94.3141 105.149 94.3409C104.877 94.3677 104.605 94.3811 104.332 94.3811C104.059 94.3811 103.787 94.3677 103.515 94.3409C103.244 94.3141 102.974 94.2752 102.706 94.2216C102.439 94.168 102.174 94.1022 101.913 94.023C101.652 93.9438 101.395 93.8524 101.143 93.7489C100.891 93.6441 100.645 93.5284 100.403 93.3992C100.163 93.2713 99.9286 93.1312 99.7017 92.9802C99.4748 92.8291 99.2565 92.6671 99.0455 92.4941C98.8345 92.3211 98.632 92.1384 98.4393 91.9459C98.2465 91.7534 98.0636 91.5524 97.8904 91.3417C97.7172 91.1309 97.5549 90.9128 97.4037 90.6862C97.2512 90.4596 97.111 90.2257 96.9829 89.9858C96.8536 89.7458 96.7377 89.4997 96.6328 89.2487C96.5291 88.9966 96.4364 88.7407 96.3571 88.48C96.2779 88.2193 96.212 87.9562 96.1583 87.6882C96.1059 87.4214 96.0656 87.1521 96.0388 86.8817C96.012 86.61 95.9985 86.3384 95.9985 86.0667V77.7522H112.665V86.0667ZM112.665 74.4265H95.9985V71.0995H112.665V74.4265ZM112.665 67.7737H95.9985V66.1108C95.9985 65.8391 96.012 65.5675 96.0388 65.2958C96.0656 65.0253 96.1059 64.7561 96.1583 64.4893C96.212 64.2225 96.2779 63.9582 96.3571 63.6975C96.4364 63.4368 96.5291 63.1809 96.6328 62.9288C96.7377 62.6778 96.8536 62.4317 96.9829 62.1917C97.111 61.9517 97.2512 61.7178 97.4037 61.4912C97.5549 61.2659 97.7172 61.0466 97.8904 60.8358C98.0636 60.6263 98.2465 60.4241 98.4393 60.2316C98.632 60.0391 98.8345 59.8564 99.0455 59.6834C99.2565 59.5116 99.4748 59.3496 99.7017 59.1973C99.9286 59.0462 100.163 58.9062 100.403 58.7782C100.645 58.6503 100.891 58.5334 101.143 58.4298C101.395 58.3251 101.652 58.2337 101.913 58.1545C102.174 58.0753 102.439 58.0095 102.706 57.9559C102.974 57.9035 103.244 57.8633 103.515 57.8365C103.787 57.8097 104.059 57.7963 104.332 57.7963C104.605 57.7963 104.877 57.8097 105.149 57.8365C105.42 57.8633 105.689 57.9035 105.958 57.9559C106.225 58.0095 106.49 58.0753 106.751 58.1545C107.012 58.2337 107.269 58.3251 107.52 58.4298C107.773 58.5334 108.019 58.6503 108.259 58.7782C108.501 58.9062 108.734 59.0462 108.961 59.1973C109.188 59.3496 109.407 59.5116 109.618 59.6834C109.829 59.8564 110.031 60.0391 110.224 60.2316C110.417 60.4241 110.6 60.6263 110.773 60.8358C110.947 61.0466 111.109 61.2659 111.26 61.4912C111.413 61.7178 111.553 61.9517 111.681 62.1917C111.809 62.4317 111.926 62.6778 112.031 62.9288C112.135 63.1809 112.227 63.4368 112.307 63.6975C112.385 63.9582 112.452 64.2225 112.504 64.4893C112.558 64.7561 112.598 65.0253 112.625 65.2958C112.652 65.5675 112.665 65.8391 112.665 66.1108V67.7737Z" fill="#141515"/>
</g>
<path d="M65.5109 34.0278C65.589 33.9511 65.6585 33.867 65.7183 33.7769C65.7793 33.6855 65.8305 33.5893 65.8732 33.4894C65.9147 33.3883 65.9464 33.2835 65.9671 33.1775C65.9891 33.0703 66 32.9619 66 32.8522C66 32.7438 65.9891 32.6354 65.9671 32.5282C65.9464 32.421 65.9147 32.3174 65.8732 32.2163C65.8305 32.1152 65.7793 32.0202 65.7183 31.9288C65.6585 31.8375 65.589 31.7546 65.5109 31.6766L57.1788 23.3622C57.1007 23.2867 57.0166 23.2197 56.9251 23.1612C56.8348 23.1027 56.7385 23.054 56.6385 23.0138C56.5372 22.9736 56.4348 22.9431 56.3274 22.9236C56.2213 22.9041 56.114 22.8944 56.0066 22.8956C55.8981 22.8968 55.7907 22.9078 55.6846 22.9297C55.5785 22.9516 55.476 22.9833 55.376 23.0247C55.276 23.0662 55.1821 23.1173 55.0918 23.177C55.0015 23.2379 54.9186 23.3062 54.8418 23.3829C54.7661 23.4584 54.6978 23.5413 54.6368 23.6314C54.5771 23.7216 54.5258 23.8154 54.4832 23.9153C54.4417 24.0152 54.41 24.1175 54.388 24.2235C54.3661 24.3295 54.3551 24.4355 54.3539 24.5439C54.3526 24.6523 54.3624 24.7583 54.3831 24.8655C54.4027 24.9715 54.4331 25.0738 54.4722 25.1749C54.5124 25.2748 54.5624 25.3698 54.621 25.4612C54.6795 25.5514 54.7466 25.6354 54.8222 25.7134L63.1544 34.0278C63.2324 34.1058 63.3166 34.174 63.4068 34.2349C63.4983 34.2958 63.5947 34.347 63.6959 34.3884C63.7972 34.4299 63.9008 34.4615 64.0082 34.4835C64.1155 34.5042 64.2241 34.5151 64.3326 34.5151C64.4424 34.5151 64.551 34.5042 64.6583 34.4835C64.7656 34.4615 64.8693 34.4299 64.9706 34.3884C65.0718 34.347 65.1682 34.2958 65.2584 34.2349C65.3499 34.174 65.4341 34.1058 65.5109 34.0278Z" fill="#141515"/>
<path d="M63.1544 48.3065L54.8222 56.621C54.7466 56.6989 54.6795 56.783 54.621 56.8732C54.5624 56.9645 54.5124 57.0595 54.4722 57.1594C54.4331 57.2606 54.4027 57.3629 54.3831 57.4701C54.3624 57.5761 54.3526 57.6833 54.3539 57.7905C54.3551 57.8989 54.3661 58.0049 54.388 58.1109C54.41 58.2169 54.4417 58.3192 54.4832 58.4191C54.5258 58.519 54.5771 58.614 54.6368 58.7029C54.6978 58.7931 54.7661 58.8759 54.8418 58.9527C54.9186 59.0282 55.0015 59.0964 55.0918 59.1573C55.1821 59.217 55.276 59.2682 55.376 59.3096C55.476 59.351 55.5785 59.3827 55.6846 59.4046C55.7907 59.4266 55.8981 59.4375 56.0066 59.4388C56.114 59.44 56.2213 59.4302 56.3274 59.4107C56.4348 59.3912 56.5372 59.3608 56.6385 59.3206C56.7385 59.2804 56.8348 59.2317 56.9251 59.1732C57.0166 59.1147 57.1007 59.0477 57.1788 58.9722L65.5109 50.6577C65.5865 50.5798 65.6536 50.4957 65.7122 50.4055C65.7707 50.3142 65.8207 50.2192 65.861 50.118C65.9012 50.0181 65.9305 49.9146 65.9512 49.8086C65.9708 49.7026 65.9805 49.5954 65.9793 49.4882C65.9781 49.3798 65.9671 49.2726 65.9451 49.1678C65.9232 49.0618 65.8915 48.9583 65.85 48.8596C65.8073 48.7597 65.7573 48.6647 65.6963 48.5758C65.6365 48.4856 65.5682 48.4028 65.4914 48.326C65.4146 48.2505 65.3316 48.1823 65.2414 48.1214C65.1523 48.0617 65.0572 48.0105 64.9571 47.9691C64.8571 47.9264 64.7547 47.8948 64.6486 47.8741C64.5424 47.8521 64.4351 47.8399 64.3278 47.8399C64.2192 47.8387 64.1119 47.8485 64.0057 47.868C63.8984 47.8875 63.7959 47.9179 63.6947 47.9581C63.5947 47.9983 63.4983 48.047 63.4081 48.1055C63.3166 48.164 63.2324 48.231 63.1544 48.3065Z" fill="#141515"/>
<path d="M51.0007 41.167C51.0007 41.2755 51.0105 41.3839 51.0324 41.4911C51.0532 41.5983 51.0849 41.7018 51.1276 41.803C51.1691 41.9041 51.2203 41.9991 51.2813 42.0905C51.3423 42.1806 51.4106 42.2647 51.4886 42.3426C51.5655 42.4194 51.6496 42.4888 51.7411 42.5497C51.8314 42.6094 51.9277 42.6606 52.029 42.7032C52.1302 42.7447 52.2339 42.7763 52.3412 42.797C52.4486 42.819 52.5571 42.8299 52.6669 42.8299H64.3326C64.4424 42.8299 64.5509 42.819 64.6583 42.797C64.7656 42.7763 64.8693 42.7447 64.9705 42.7032C65.0718 42.6606 65.1681 42.6094 65.2596 42.5497C65.3499 42.4888 65.434 42.4194 65.5121 42.3426C65.5889 42.2647 65.6585 42.1806 65.7195 42.0905C65.7792 41.9991 65.8305 41.9041 65.8731 41.803C65.9146 41.7018 65.9463 41.5983 65.9683 41.4911C65.989 41.3839 66 41.2755 66 41.167C66 41.0574 65.989 40.949 65.9683 40.8418C65.9463 40.7346 65.9146 40.631 65.8731 40.5299C65.8305 40.4288 65.7792 40.3338 65.7195 40.2424C65.6585 40.1522 65.5889 40.0682 65.5121 39.9902C65.434 39.9135 65.3499 39.844 65.2596 39.7843C65.1681 39.7234 65.0718 39.6723 64.9705 39.6296C64.8693 39.5882 64.7656 39.5565 64.6583 39.5358C64.5509 39.5139 64.4424 39.5029 64.3326 39.5029H52.6669C52.5571 39.5029 52.4486 39.5139 52.3412 39.5358C52.2339 39.5565 52.1302 39.5882 52.029 39.6296C51.9277 39.6723 51.8314 39.7234 51.7411 39.7843C51.6496 39.844 51.5655 39.9135 51.4886 39.9902C51.4106 40.0682 51.3423 40.1522 51.2813 40.2424C51.2203 40.3338 51.1691 40.4288 51.1276 40.5299C51.0849 40.631 51.0532 40.7346 51.0324 40.8418C51.0105 40.949 51.0007 41.0574 51.0007 41.167Z" fill="#141515"/>
</svg>
