<svg viewBox="0 0 132 132" fill="none" xmlns="http://www.w3.org/2000/svg">
<circle cx="66" cy="66" r="66" fill="#BCEA8F"/>
<mask id="mask0_159_728" style="mask-type:luminance" maskUnits="userSpaceOnUse" x="21" y="81" width="52" height="30">
<path d="M21 81.8789H72.686V111H21V81.8789Z" fill="white"/>
</mask>
<g mask="url(#mask0_159_728)">
<path d="M24.3367 107.786H69.2732V88.4999C69.2732 86.7292 67.8317 85.2856 66.0635 85.2856H27.5465C25.7782 85.2856 24.3367 86.7292 24.3367 88.4999V107.786ZM70.8776 111H22.7313C21.8477 111 21.127 110.278 21.127 109.392V88.4999C21.127 84.953 24.0045 82.0713 27.5465 82.0713H66.0635C69.6054 82.0713 72.483 84.953 72.483 88.4999V109.392C72.483 110.278 71.7676 111 70.8776 111Z" fill="#141515"/>
</g>
<path d="M66.0635 85.2852C65.9941 85.2852 65.9192 85.2787 65.8508 85.2667C64.9661 85.1472 64.3517 84.3373 64.4711 83.4579L69.2852 48.1005C69.4046 47.2276 70.2068 46.607 71.098 46.7254C71.975 46.8515 72.5894 47.6614 72.47 48.5397L67.6559 83.8971C67.543 84.7015 66.8537 85.2852 66.0635 85.2852Z" fill="#141515"/>
<path d="M27.5464 85.2853C26.7562 85.2853 26.0669 84.7016 25.954 83.8972L21.1389 48.5398C21.0205 47.6615 21.6349 46.8516 22.5185 46.7255C23.3966 46.6071 24.2053 47.2223 24.3236 48.1006L29.1388 83.458C29.2582 84.3374 28.6438 85.1473 27.7657 85.2668C27.6908 85.2788 27.6148 85.2853 27.5464 85.2853Z" fill="#141515"/>
<path d="M24.7885 46.7138H68.8219L68.6276 45.9355C68.2704 44.4973 66.9918 43.4995 65.5122 43.4995H28.0981C26.6186 43.4995 25.3399 44.4973 24.9828 45.9355L24.7885 46.7138ZM70.8778 49.9281H22.7315C22.2365 49.9281 21.773 49.702 21.4658 49.3063C21.1641 48.9172 21.0577 48.4084 21.1771 47.9312L21.8664 45.1561C22.5817 42.2874 25.1456 40.2852 28.0981 40.2852H65.5122C68.4647 40.2852 71.0286 42.2874 71.7429 45.1561L72.4332 47.9312C72.5581 48.4084 72.4452 48.9172 72.1445 49.3063C71.8373 49.702 71.3738 49.9281 70.8778 49.9281Z" fill="#141515"/>
<mask id="mask1_159_728" style="mask-type:luminance" maskUnits="userSpaceOnUse" x="30" y="101" width="33" height="10">
<path d="M30.7258 101.08H62.9601V111H30.7258V101.08Z" fill="white"/>
</mask>
<g mask="url(#mask1_159_728)">
<path d="M61.2484 111C60.3649 111 59.6441 110.279 59.6441 109.393V104.572H33.9661V109.393C33.9661 110.279 33.2508 111 32.3607 111C31.4771 111 30.7563 110.279 30.7563 109.393V102.964C30.7563 102.079 31.4771 101.357 32.3607 101.357H61.2484C62.1385 101.357 62.8539 102.079 62.8539 102.964V109.393C62.8539 110.279 62.1385 111 61.2484 111Z" fill="#141515"/>
</g>
<path d="M35.5704 91.7143C34.6869 91.7143 33.9661 92.4361 33.9661 93.3209C33.9661 94.2068 34.6869 94.9286 35.5704 94.9286C36.4551 94.9286 37.1758 94.2068 37.1758 93.3209C37.1758 92.4361 36.4551 91.7143 35.5704 91.7143ZM35.5704 98.1429C32.9186 98.1429 30.7563 95.983 30.7563 93.3209C30.7563 90.6599 32.9186 88.5 35.5704 88.5C38.2288 88.5 40.3856 90.6599 40.3856 93.3209C40.3856 95.983 38.2288 98.1429 35.5704 98.1429Z" fill="#141515"/>
<path d="M102.975 70.8205C102.975 71.7064 102.261 72.4282 101.371 72.4282C100.487 72.4282 99.7654 71.7064 99.7654 70.8205C99.7654 69.9356 100.487 69.2139 101.371 69.2139C102.261 69.2139 102.975 69.9356 102.975 70.8205Z" fill="#141515"/>
<path d="M102.975 77.2492C102.975 78.1351 102.261 78.8569 101.371 78.8569C100.487 78.8569 99.7654 78.1351 99.7654 77.2492C99.7654 76.3644 100.487 75.6426 101.371 75.6426C102.261 75.6426 102.975 76.3644 102.975 77.2492Z" fill="#141515"/>
<path d="M102.975 83.6779C102.975 84.5638 102.261 85.2856 101.371 85.2856C100.487 85.2856 99.7654 84.5638 99.7654 83.6779C99.7654 82.7931 100.487 82.0713 101.371 82.0713C102.261 82.0713 102.975 82.7931 102.975 83.6779Z" fill="#141515"/>
<path d="M61.2483 91.7143H45.1995C44.316 91.7143 43.5952 90.9925 43.5952 90.1066C43.5952 89.2218 44.316 88.5 45.1995 88.5H61.2483C62.1384 88.5 62.8537 89.2218 62.8537 90.1066C62.8537 90.9925 62.1384 91.7143 61.2483 91.7143Z" fill="#141515"/>
<path d="M61.2483 98.1425H45.1995C44.316 98.1425 43.5952 97.4208 43.5952 96.5348C43.5952 95.65 44.316 94.9282 45.1995 94.9282H61.2483C62.1384 94.9282 62.8537 95.65 62.8537 96.5348C62.8537 97.4208 62.1384 98.1425 61.2483 98.1425Z" fill="#141515"/>
<mask id="mask2_159_728" style="mask-type:luminance" maskUnits="userSpaceOnUse" x="91" y="94" width="20" height="17">
<path d="M91.582 94.6797H111V111H91.582V94.6797Z" fill="white"/>
</mask>
<g mask="url(#mask2_159_728)">
<path d="M94.9515 107.786H107.79V99.7496C107.79 98.8648 107.07 98.143 106.185 98.143H96.5558C95.6722 98.143 94.9515 98.8648 94.9515 99.7496V107.786ZM109.395 111H93.346C92.4625 111 91.7417 110.278 91.7417 109.393V99.7496C91.7417 97.0886 93.904 94.9287 96.5558 94.9287H106.185C108.843 94.9287 111 97.0886 111 99.7496V109.393C111 110.278 110.286 111 109.395 111Z" fill="#141515"/>
</g>
<path d="M106.185 98.1427C105.301 98.1427 104.581 97.4209 104.581 96.535V56.3567C104.581 55.4708 103.86 54.749 102.975 54.749H99.7655C98.8819 54.749 98.1612 55.4708 98.1612 56.3567V96.535C98.1612 97.4209 97.4469 98.1427 96.5557 98.1427C95.6722 98.1427 94.9514 97.4209 94.9514 96.535V56.3567C94.9514 53.6946 97.1137 51.5347 99.7655 51.5347H102.975C105.634 51.5347 107.79 53.6946 107.79 56.3567V96.535C107.79 97.4209 107.076 98.1427 106.185 98.1427Z" fill="#141515"/>
<path d="M96.5557 70.8206C95.6722 70.8206 94.9514 70.0988 94.9514 69.214C94.9514 63.118 100.099 57.9634 106.185 57.9634C107.076 57.9634 107.79 58.6852 107.79 59.5711C107.79 60.4559 107.076 61.1777 106.185 61.1777C102.311 61.1777 98.1612 64.405 98.1612 69.214C98.1612 70.0988 97.4469 70.8206 96.5557 70.8206Z" fill="#141515"/>
<path d="M101.371 54.749C100.487 54.749 99.7652 54.0272 99.7652 53.1424V39.1992C99.7652 38.6839 99.8477 38.1752 100.011 37.6795L102.349 30.6541C102.561 30.0139 102.355 29.3106 101.829 28.8899L95.5525 23.8614C94.8632 23.3091 94.7503 22.2917 95.3018 21.6014C95.8597 20.9112 96.8627 20.7981 97.5585 21.3503L103.835 26.3789C105.408 27.6344 106.028 29.7628 105.396 31.6716L103.057 38.6905C103.006 38.8535 102.975 39.0296 102.975 39.1992V53.1424C102.975 54.0272 102.261 54.749 101.371 54.749Z" fill="#141515"/>
<path d="M93.3458 109.392H82.1122C78.5703 109.392 75.6927 106.511 75.6927 102.964C75.6927 99.4167 78.5703 96.535 82.1122 96.535C83.8804 96.535 85.3219 95.0915 85.3219 93.3207C85.3219 91.551 83.8804 90.1064 82.1122 90.1064H70.8775C69.9939 90.1064 69.2732 89.3846 69.2732 88.4998C69.2732 87.615 69.9939 86.8921 70.8775 86.8921H82.1122C85.6541 86.8921 88.5317 89.7738 88.5317 93.3207C88.5317 96.8677 85.6541 99.7493 82.1122 99.7493C80.344 99.7493 78.9024 101.194 78.9024 102.964C78.9024 104.734 80.344 106.178 82.1122 106.178H93.3458C94.237 106.178 94.9512 106.901 94.9512 107.786C94.9512 108.67 94.237 109.392 93.3458 109.392Z" fill="#141515"/>
<path d="M32.3607 78.8571C31.4771 78.8571 30.7563 78.1353 30.7563 77.2494V54.7492C30.7563 53.8644 31.4771 53.1426 32.3607 53.1426C33.2508 53.1426 33.9661 53.8644 33.9661 54.7492V77.2494C33.9661 78.1353 33.2508 78.8571 32.3607 78.8571Z" fill="#141515"/>
<path d="M40.3855 57.9633H37.1757C36.2922 57.9633 35.5703 57.2416 35.5703 56.3567C35.5703 55.4708 36.2922 54.749 37.1757 54.749H40.3855C41.2756 54.749 41.9898 55.4708 41.9898 56.3567C41.9898 57.2416 41.2756 57.9633 40.3855 57.9633Z" fill="#141515"/>
<path d="M40.3855 64.392H37.1757C36.2922 64.392 35.5703 63.6703 35.5703 62.7854C35.5703 61.8995 36.2922 61.1777 37.1757 61.1777H40.3855C41.2756 61.1777 41.9898 61.8995 41.9898 62.7854C41.9898 63.6703 41.2756 64.392 40.3855 64.392Z" fill="#141515"/>
<path d="M40.3855 70.8208H37.1757C36.2922 70.8208 35.5703 70.099 35.5703 69.2141C35.5703 68.3282 36.2922 67.6064 37.1757 67.6064H40.3855C41.2756 67.6064 41.9898 68.3282 41.9898 69.2141C41.9898 70.099 41.2756 70.8208 40.3855 70.8208Z" fill="#141515"/>
<path d="M40.3855 77.249H37.1757C36.2922 77.249 35.5703 76.5272 35.5703 75.6424C35.5703 74.7564 36.2922 74.0347 37.1757 74.0347H40.3855C41.2756 74.0347 41.9898 74.7564 41.9898 75.6424C41.9898 76.5272 41.2756 77.249 40.3855 77.249Z" fill="#141515"/>
</svg>
