<svg viewBox="0 0 132 132" fill="none" xmlns="http://www.w3.org/2000/svg">
<circle cx="66" cy="66" r="66" fill="#BCEA8F"/>
<mask id="mask0_159_986" style="mask-type:luminance" maskUnits="userSpaceOnUse" x="27" y="12" width="78" height="97">
<path d="M27.6033 12H104.397V108.878H27.6033V12Z" fill="white"/>
</mask>
<g mask="url(#mask0_159_986)">
<path d="M31.1105 105.193H100.891V18.9029C100.891 17.0014 99.3236 15.4521 97.4019 15.4521H34.5995C32.6778 15.4521 31.1105 17.0014 31.1105 18.9029V105.193ZM102.635 108.645H29.3661C28.4046 108.645 27.6216 107.87 27.6216 106.919V18.9029C27.6216 15.0948 30.7483 12 34.5995 12H97.4019C101.252 12 104.38 15.0948 104.38 18.9029V106.919C104.38 107.87 103.597 108.645 102.635 108.645Z" fill="black"/>
</g>
<path d="M90.4239 101.742C89.4624 101.742 88.6794 100.967 88.6794 100.016V20.6289C88.6794 19.6781 89.4624 18.9028 90.4239 18.9028C91.3841 18.9028 92.1684 19.6781 92.1684 20.6289V100.016C92.1684 100.967 91.3841 101.742 90.4239 101.742Z" fill="black"/>
<path d="M41.5775 101.742C40.616 101.742 39.833 100.967 39.833 100.016V20.6289C39.833 19.6781 40.616 18.9028 41.5775 18.9028C42.5377 18.9028 43.322 19.6781 43.322 20.6289V100.016C43.322 100.967 42.5377 101.742 41.5775 101.742Z" fill="black"/>
<mask id="mask1_159_986" style="mask-type:luminance" maskUnits="userSpaceOnUse" x="86" y="104" width="16" height="15">
<path d="M86.8035 104.916H101.145V119H86.8035V104.916Z" fill="white"/>
</mask>
<g mask="url(#mask1_159_986)">
<path d="M93.913 108.645C91.9913 108.645 90.424 110.196 90.424 112.097C90.424 113.997 91.9913 115.548 93.913 115.548C95.8346 115.548 97.4019 113.997 97.4019 112.097C97.4019 110.196 95.8346 108.645 93.913 108.645ZM93.913 119C90.0631 119 86.9351 115.905 86.9351 112.097C86.9351 108.288 90.0631 105.193 93.913 105.193C97.7628 105.193 100.891 108.288 100.891 112.097C100.891 115.905 97.7628 119 93.913 119Z" fill="black"/>
</g>
<mask id="mask2_159_986" style="mask-type:luminance" maskUnits="userSpaceOnUse" x="31" y="104" width="15" height="15">
<path d="M31.1052 104.916H45.1131V119H31.1052V104.916Z" fill="white"/>
</mask>
<g mask="url(#mask2_159_986)">
<path d="M38.0883 108.645C36.1666 108.645 34.5993 110.196 34.5993 112.097C34.5993 113.997 36.1666 115.548 38.0883 115.548C40.0099 115.548 41.5772 113.997 41.5772 112.097C41.5772 110.196 40.0099 108.645 38.0883 108.645ZM38.0883 119C34.2371 119 31.1104 115.905 31.1104 112.097C31.1104 108.288 34.2371 105.193 38.0883 105.193C41.9381 105.193 45.0662 108.288 45.0662 112.097C45.0662 115.905 41.9381 119 38.0883 119Z" fill="black"/>
</g>
<path d="M60.7665 27.5318H71.2334V24.081H60.7665V27.5318ZM72.9779 30.984H59.0221C58.0619 30.984 57.2776 30.2087 57.2776 29.2579V22.355C57.2776 21.4042 58.0619 20.6289 59.0221 20.6289H72.9779C73.9394 20.6289 74.7223 21.4042 74.7223 22.355V29.2579C74.7223 30.2087 73.9394 30.984 72.9779 30.984Z" fill="black"/>
<path d="M83.4461 39.6128H48.5553C47.5938 39.6128 46.8108 38.8375 46.8108 37.8867C46.8108 36.936 47.5938 36.1606 48.5553 36.1606H83.4461C84.4063 36.1606 85.1906 36.936 85.1906 37.8867C85.1906 38.8375 84.4063 39.6128 83.4461 39.6128Z" fill="black"/>
<path d="M83.4461 86.2104H48.5553C47.5938 86.2104 46.8108 85.4351 46.8108 84.4844C46.8108 83.5336 47.5938 82.7583 48.5553 82.7583H83.4461C84.4063 82.7583 85.1906 83.5336 85.1906 84.4844C85.1906 85.4351 84.4063 86.2104 83.4461 86.2104Z" fill="black"/>
<path d="M74.7224 86.2102C73.7623 86.2102 72.978 85.4349 72.978 84.4841V62.048C72.978 60.1477 71.4107 58.5971 69.489 58.5971H62.5111C60.5894 58.5971 59.0222 60.1477 59.0222 62.048V84.4841C59.0222 85.4349 58.2392 86.2102 57.2777 86.2102C56.3175 86.2102 55.5332 85.4349 55.5332 84.4841V62.048C55.5332 58.2398 58.6613 55.145 62.5111 55.145H69.489C73.3401 55.145 76.4669 58.2398 76.4669 62.048V84.4841C76.4669 85.4349 75.6839 86.2102 74.7224 86.2102Z" fill="black"/>
<path d="M74.7224 65.5H57.2777C56.3175 65.5 55.5332 64.7247 55.5332 63.7739C55.5332 62.8232 56.3175 62.0479 57.2777 62.0479H74.7224C75.6839 62.0479 76.4669 62.8232 76.4669 63.7739C76.4669 64.7247 75.6839 65.5 74.7224 65.5Z" fill="black"/>
<path d="M69.489 58.5968C68.5288 58.5968 67.7445 57.8214 67.7445 56.8707V51.6925H64.2556V56.8707C64.2556 57.8214 63.4726 58.5968 62.5111 58.5968C61.5509 58.5968 60.7666 57.8214 60.7666 56.8707V49.9678C60.7666 49.017 61.5509 48.2417 62.5111 48.2417H69.489C70.4505 48.2417 71.2335 49.017 71.2335 49.9678V56.8707C71.2335 57.8214 70.4505 58.5968 69.489 58.5968Z" fill="black"/>
<path d="M65.9998 51.693C65.0397 51.693 64.2554 50.9177 64.2554 49.9682V47.3791C64.2554 44.999 66.2109 43.064 68.6172 43.064H83.4459C84.4061 43.064 85.1904 43.8393 85.1904 44.79C85.1904 45.7408 84.4061 46.5161 83.4459 46.5161H68.6172C68.1326 46.5161 67.7443 46.9005 67.7443 47.3791V49.9682C67.7443 50.9177 66.9613 51.693 65.9998 51.693Z" fill="black"/>
<path d="M81.7016 27.5319H79.9571C78.9956 27.5319 78.2126 26.7566 78.2126 25.8058C78.2126 24.8564 78.9956 24.0811 79.9571 24.0811H81.7016C82.6618 24.0811 83.4461 24.8564 83.4461 25.8058C83.4461 26.7566 82.6618 27.5319 81.7016 27.5319Z" fill="black"/>
<path d="M52.0441 27.5319H50.2997C49.3382 27.5319 48.5552 26.7566 48.5552 25.8058C48.5552 24.8564 49.3382 24.0811 50.2997 24.0811H52.0441C53.0056 24.0811 53.7886 24.8564 53.7886 25.8058C53.7886 26.7566 53.0056 27.5319 52.0441 27.5319Z" fill="black"/>
</svg>
