<svg width="24" height="24" viewBox="0 0 24 24" fill="none" xmlns="http://www.w3.org/2000/svg">
<path d="M3.25 7.9725H20.75M3.25 7.9725V17.97C3.25 18.633 3.51339 19.2689 3.98223 19.7378C4.45107 20.2066 5.08696 20.47 5.75 20.47H18.25C18.913 20.47 19.5489 20.2066 20.0178 19.7378C20.4866 19.2689 20.75 18.633 20.75 17.97V7.9725M3.25 7.9725C2.91848 7.9725 2.60054 7.8408 2.36612 7.60638C2.1317 7.37196 2 7.05402 2 6.7225V4.25C2 3.91848 2.1317 3.60054 2.36612 3.36612C2.60054 3.1317 2.91848 3 3.25 3H20.75C21.0815 3 21.3995 3.1317 21.6339 3.36612C21.8683 3.60054 22 3.91848 22 4.25V6.7225C22 7.05402 21.8683 7.37196 21.6339 7.60638C21.3995 7.8408 21.0815 7.9725 20.75 7.9725M9.5 11.7225H14.5" stroke-linecap="round" stroke-linejoin="round"/>
</svg>
