<svg width="23" height="24" viewBox="0 0 23 24" fill="none" xmlns="http://www.w3.org/2000/svg">
<path d="M18.8792 11.47L12.4625 4.47C12.2857 4.28243 12.0305 4.21204 11.7932 4.28533C11.5559 4.35863 11.3724 4.56447 11.312 4.82533C11.2515 5.08619 11.3232 5.36243 11.5 5.55L16.7342 11.25H4.60669C4.22699 11.25 3.91919 11.5858 3.91919 12C3.91919 12.4142 4.22699 12.75 4.60669 12.75H16.725L11.5 18.45C11.369 18.5893 11.2951 18.7804 11.2951 18.98C11.2951 19.1796 11.369 19.3707 11.5 19.51C11.6264 19.6546 11.8028 19.7345 11.9859 19.73C12.1683 19.7309 12.3435 19.6516 12.4717 19.51L18.8884 12.51C19.1564 12.2172 19.1564 11.7428 18.8884 11.45L18.8792 11.47Z" fill="#FEFEFE"/>
</svg>
