<svg viewBox="0 0 20 20" xmlns="http://www.w3.org/2000/svg">
<path d="M13.75 6.80016H6.24999C5.90481 6.80016 5.62499 7.07998 5.62499 7.42516C5.62499 7.77034 5.90481 8.05016 6.24999 8.05016H13.75C14.0952 8.05016 14.375 7.77034 14.375 7.42516C14.375 7.07998 14.0952 6.80016 13.75 6.80016Z"/>
<path fill-rule="evenodd" clip-rule="evenodd" d="M14.075 2.97516H14.1667C16.4678 2.97516 18.3333 4.84064 18.3333 7.14183V14.6418C18.3333 16.943 16.4678 18.8085 14.1667 18.8085H5.83332C4.72825 18.8085 3.66845 18.3695 2.88704 17.5881C2.10564 16.8067 1.66666 15.7469 1.66666 14.6418V7.14183C1.66666 4.84064 3.53214 2.97516 5.83332 2.97516H5.90832V1.4585C5.90832 1.11332 6.18815 0.833496 6.53332 0.833496C6.8785 0.833496 7.15832 1.11332 7.15832 1.4585V2.97516H12.825V1.4585C12.825 1.11332 13.1048 0.833496 13.45 0.833496C13.7952 0.833496 14.075 1.11332 14.075 1.4585V2.97516ZM14.1667 17.5585C15.7775 17.5585 17.0833 16.2527 17.0833 14.6418V7.14183C17.0833 5.531 15.7775 4.22516 14.1667 4.22516H5.83332C4.22249 4.22516 2.91666 5.531 2.91666 7.14183V14.6418C2.91666 16.2527 4.22249 17.5585 5.83332 17.5585H14.1667Z"/>
</svg>
