<svg viewBox="0 0 20 20" xmlns="http://www.w3.org/2000/svg">
<path d="M7.20832 6.32484C6.96207 6.09537 6.57832 6.10214 6.34031 6.34015C6.1023 6.57816 6.09552 6.96191 6.32499 7.20817L9.47499 10.3582V14.2665C9.47499 14.6117 9.75481 14.8915 10.1 14.8915C10.4452 14.8915 10.725 14.6117 10.725 14.2665V10.0998C10.7248 9.93413 10.6589 9.77527 10.5417 9.65817L7.20832 6.32484Z" />
<path fill-rule="evenodd" clip-rule="evenodd" d="M8.33332 1.6665H11.8667C13.6348 1.6665 15.3305 2.36888 16.5807 3.61913C17.8309 4.86937 18.5333 6.56506 18.5333 8.33317V11.8665C18.5333 15.5484 15.5486 18.5332 11.8667 18.5332H8.33332C4.65142 18.5332 1.66666 15.5484 1.66666 11.8665V8.33317C1.66666 4.65127 4.65142 1.6665 8.33332 1.6665ZM11.8667 17.2832C14.8563 17.2786 17.2787 14.8561 17.2833 11.8665V8.33317C17.2787 5.34353 14.8563 2.92109 11.8667 2.9165H8.33332C5.34368 2.92109 2.92125 5.34353 2.91666 8.33317V11.8665C2.92125 14.8561 5.34368 17.2786 8.33332 17.2832H11.8667Z"/>
</svg>
