<svg viewBox="0 0 20 20" xmlns="http://www.w3.org/2000/svg">
<path d="M11.2961 10.0089L19.7356 1.59802C20.0882 1.24212 20.0882 0.66555 19.7356 0.309645C19.3892 -0.0526216 18.8172 -0.0635016 18.4576 0.285336L10.0181 8.69626L1.6871 0.285336C1.5163 0.103201 1.27865 0 1.03003 0C0.781406 0 0.543754 0.103201 0.372953 0.285336C0.060334 0.629196 0.060334 1.15693 0.372953 1.50079L8.70394 9.89955L0.264445 18.2983C-0.0881485 18.6542 -0.0881485 19.2308 0.264445 19.5867C0.432304 19.76 0.663162 19.8566 0.903435 19.8541C1.14834 19.8741 1.39113 19.7954 1.57859 19.6353L10.0181 11.2244L18.4576 19.7326C18.6254 19.9059 18.8563 20.0025 19.0966 20C19.3366 20.0011 19.5669 19.9047 19.7356 19.7326C20.0882 19.3766 20.0882 18.8001 19.7356 18.4442L11.2961 10.0089Z" fill="#245D19"/>
</svg>
