<svg viewBox="0 0 20 20"  xmlns="http://www.w3.org/2000/svg">
<path d="M14.0167 12.904C13.7126 12.7512 13.3422 12.8697 13.1833 13.1707C13.0365 13.4772 13.1579 13.845 13.4583 14.004C14.1917 14.379 14.6083 14.8373 14.6083 15.279C14.6083 16.2207 12.6417 17.2707 10.0083 17.2707C7.37499 17.2707 5.39999 16.229 5.39999 15.3123C5.39999 14.879 5.81666 14.4123 6.54999 14.0373C6.76991 13.9491 6.92105 13.7442 6.94032 13.508C6.95958 13.2719 6.84366 13.0451 6.64094 12.9225C6.43822 12.7998 6.18357 12.8023 5.98332 12.929C4.97157 13.3103 4.26622 14.2357 4.16666 15.3123C4.16666 17.1623 6.66666 18.554 9.99999 18.554C13.3333 18.554 15.8333 17.1623 15.8333 15.3123C15.743 14.2264 15.036 13.2892 14.0167 12.904Z" />
<path fill-rule="evenodd" clip-rule="evenodd" d="M9.37499 15.679V12.079C6.63073 11.7484 4.61876 9.33758 4.78438 6.57844C4.94999 3.81931 7.23589 1.6665 9.99999 1.6665C12.7641 1.6665 15.05 3.81931 15.2156 6.57844C15.3812 9.33758 13.3692 11.7484 10.625 12.079V15.679C10.625 16.0242 10.3452 16.304 9.99999 16.304C9.65481 16.304 9.37499 16.0242 9.37499 15.679ZM13.6868 5.36745C13.0682 3.87822 11.6126 2.90895 9.99999 2.91232C7.80656 2.91691 6.02958 4.69389 6.02499 6.88732C6.02162 8.49994 6.99089 9.95549 8.48012 10.5742C9.96934 11.1929 11.6847 10.8526 12.825 9.71229C13.9653 8.57199 14.3055 6.85667 13.6868 5.36745Z" />
<path d="M7.99166 7.81232C8.33684 7.81232 8.61666 7.5325 8.61666 7.18732C8.61666 6.23003 9.3927 5.45399 10.35 5.45399C10.6952 5.45399 10.975 5.17417 10.975 4.82899C10.975 4.48381 10.6952 4.20399 10.35 4.20399C9.55655 4.2062 8.79648 4.52351 8.237 5.08612C7.67752 5.64873 7.36444 6.41055 7.36666 7.20399C7.36885 7.36754 7.43594 7.52353 7.55315 7.63761C7.67037 7.7517 7.8281 7.81455 7.99166 7.81232Z" />
</svg>
