<svg xmlns="http://www.w3.org/2000/svg" viewBox="0 0 53.28 40.37"><g id="Слой_2" data-name="Слой 2"><g id="Слой_1-2" data-name="Слой 1"><path d="M26.82,31.29a3.49,3.49,0,0,1-3.49-3.49V15.7a3.49,3.49,0,0,1,7,0V27.8A3.49,3.49,0,0,1,26.82,31.29Zm0-18.58a3,3,0,0,0-3,3V27.8a3,3,0,1,0,6,0V15.7A3,3,0,0,0,26.82,12.71Z"/><path d="M36.77,31a3.49,3.49,0,0,1-1.05-.17,3.44,3.44,0,0,1-2-1.76L30,21.11,33.6,13.7a3.38,3.38,0,0,1,2-1.76A3.18,3.18,0,0,1,38,12.1a3.36,3.36,0,0,1,1.45,4.5l-2.15,4.76,2.31,4.77a3.38,3.38,0,0,1-1.45,4.5A3.1,3.1,0,0,1,36.77,31Zm-6.21-9.84,3.64,7.69a2.91,2.91,0,0,0,1.68,1.5A2.7,2.7,0,0,0,38,30.19a2.88,2.88,0,0,0,1.22-3.85l-2.41-5,2.25-5a2.88,2.88,0,0,0-1.22-3.85,2.67,2.67,0,0,0-2.06-.12,2.86,2.86,0,0,0-1.68,1.5Z"/><path d="M50.16,31H43.93a3.08,3.08,0,0,1-.25-6.16l0-6.87A3.08,3.08,0,0,1,44,11.77h6.23a3.08,3.08,0,0,1,.25,6.16l0,6.87A3.08,3.08,0,0,1,50.16,31Zm-6.23-5.67a2.59,2.59,0,1,0,0,5.17h6.23a2.59,2.59,0,1,0,0-5.17h-.25l0-7.85h.24a2.59,2.59,0,1,0,0-5.17H44a2.59,2.59,0,1,0,0,5.17h.25l0,7.85Z"/><path d="M7,31.39l-.06,0C2,28.73-.11,25.33,0,20l0-.11a2.21,2.21,0,0,1,1.88-1.29,2.86,2.86,0,0,1,2.45,1c.25.36.48.76.73,1.18,1,1.66,2.06,3.54,4.27,3.62a4,4,0,0,0,3-1.19,5.16,5.16,0,0,0,1.47-3.85,3.92,3.92,0,0,0-1.4-3.14,4.2,4.2,0,0,0-3.36-.75,6,6,0,0,0-2.24,1.28,4.83,4.83,0,0,1-3.45,1.44H3.24C2,18.12.19,18,.33,15.83c0-1.14,4.64-4.66,8.55-5.13a7.32,7.32,0,0,1,4.39.82,6.65,6.65,0,0,0,.61.27l0-.16c-.14-1-.35-2.45-1.29-3.13S11,7.46,10.23,7c-1.62-1-3-1.82-3.63-3.33C6.08,2.38,6.12.94,6.68.33A1,1,0,0,1,7.81.06,23.15,23.15,0,0,1,17,6.47l.13.17c2.52,3.2,5.66,7.17,5,14.88C22,23,19.49,30.7,14.48,31.32c-3.48,0-3.48,0-7.45.07ZM.5,20.07c-.09,5.06,1.88,8.3,6.59,10.82,3.9-.1,3.92-.1,7.36-.06,4.67-.59,7.06-8.09,7.17-9.36C22.24,14,19.3,10.24,16.71,7l-.14-.17A22.39,22.39,0,0,0,7.66.54a.55.55,0,0,0-.61.12,3.19,3.19,0,0,0,0,2.84c.54,1.35,1.81,2.12,3.42,3.08C11.21,7,12,7.5,12.85,8.1c1.12.8,1.35,2.4,1.5,3.46,0,.16,0,.31.06.44a4.71,4.71,0,0,0,1.4.25h.07C18.15,13,20,17.19,20,17.37l-.46.19c-.6-1.43-2.18-4.26-3.81-4.82a6.48,6.48,0,0,1-2.7-.76,6.78,6.78,0,0,0-4.12-.78c-4,.48-8.12,4-8.11,4.65-.1,1.54,1,1.74,2.45,1.87h.16A4.42,4.42,0,0,0,6.53,16.4,6.31,6.31,0,0,1,9,15a4.69,4.69,0,0,1,3.78.85,4.34,4.34,0,0,1,1.59,3.52,5.64,5.64,0,0,1-1.62,4.21,4.57,4.57,0,0,1-3.38,1.34c-2.49-.1-3.71-2.19-4.68-3.87-.25-.41-.48-.8-.71-1.14a2.39,2.39,0,0,0-2-.82A1.71,1.71,0,0,0,.5,20.07Z"/><path d="M8.81,11.18c-2.2-.95-4.14-3.93-3.64-5.6.15-.51.68-1.32,2.51-1l-.09.49c-.76-.13-1.71-.12-1.94.65C5.26,7,6.93,9.83,9,10.72Z"/><path d="M12.69,40.2h-.38a.87.87,0,0,1-.86-.87V37.94l-.55.37a.26.26,0,0,1-.29,0l-.55-.37v1.39a.87.87,0,0,1-.87.87H8.82A.87.87,0,0,1,8,39.33V35.16A.24.24,0,0,1,8,35a1.11,1.11,0,0,1,.87-.57h0c.54,0,1.46.91,1.88,1.36.43-.45,1.35-1.36,1.89-1.36h0a1.11,1.11,0,0,1,.87.57.24.24,0,0,1,0,.12v4.17A.87.87,0,0,1,12.69,40.2Zm-1-3a.2.2,0,0,1,.11,0,.25.25,0,0,1,.14.22v1.87a.37.37,0,0,0,.36.37h.38a.37.37,0,0,0,.36-.37v-4.1a.57.57,0,0,0-.41-.26h0a4.57,4.57,0,0,0-1.7,1.4.25.25,0,0,1-.37,0A4.57,4.57,0,0,0,8.87,35h0a.57.57,0,0,0-.4.26v4.1a.37.37,0,0,0,.36.37h.37a.37.37,0,0,0,.37-.37V37.46a.26.26,0,0,1,.13-.22.27.27,0,0,1,.26,0l.8.54.81-.54A.24.24,0,0,1,11.7,37.21Z"/><path d="M17.75,40.27a.23.23,0,0,1-.17-.07l-.91-.83H16l-.91.83a.24.24,0,0,1-.31,0l-.76-.54a.85.85,0,0,1-.16-1l1.63-4c.17-.32.64-.35.83-.35h0c.17,0,.71,0,.88.35l1.58,4a.81.81,0,0,1-.13.92l-.8.58A.24.24,0,0,1,17.75,40.27ZM16.4,34.82a.78.78,0,0,0-.43.08l-1.61,4a.34.34,0,0,0,0,.4l.55.39.84-.76a.28.28,0,0,1,.17-.07h.81a.24.24,0,0,1,.17.07l.84.76.59-.43a.36.36,0,0,0,0-.34l-1.58-4A.84.84,0,0,0,16.4,34.82Z"/><path d="M17,38.32h-1a.23.23,0,0,1-.2-.11.24.24,0,0,1,0-.23l.52-1.34a.24.24,0,0,1,.23-.16h0a.24.24,0,0,1,.23.16L17.19,38a.24.24,0,0,1,0,.23A.25.25,0,0,1,17,38.32Zm-.66-.5h.3l-.15-.4Z"/><path d="M23.35,40.09A1.14,1.14,0,0,1,22.21,39v-.74L21.5,39A1.14,1.14,0,0,1,19.23,39V35.7a1.14,1.14,0,0,1,2.27,0v.86l.72-.93a1.14,1.14,0,0,1,2.27.08V39A1.14,1.14,0,0,1,23.35,40.09Zm-.9-2.79.09,0a.23.23,0,0,1,.16.23V39a.64.64,0,0,0,.64.64A.63.63,0,0,0,24,39V35.71a.64.64,0,0,0-1.28,0,.24.24,0,0,1-.05.16l-1.21,1.58a.24.24,0,0,1-.28.08A.25.25,0,0,1,21,37.3V35.7a.63.63,0,0,0-.63-.63.64.64,0,0,0-.64.63V39a.64.64,0,0,0,.64.63A.63.63,0,0,0,21,39a.35.35,0,0,1,.06-.17l1.2-1.39A.25.25,0,0,1,22.45,37.3Z"/><path d="M21.86,34.66a2,2,0,0,1-2.11-1.83.25.25,0,0,1,.25-.25h.9a.26.26,0,0,1,.25.25.73.73,0,0,0,1.43,0,.25.25,0,0,1,.25-.25h.89a.25.25,0,0,1,.25.25A2,2,0,0,1,21.86,34.66Zm-1.58-1.58a1.7,1.7,0,0,0,3.16,0H23a1.26,1.26,0,0,1-2.36,0Z"/><path d="M27.61,40.37a3,3,0,0,1-2.85-3v-.15a3,3,0,0,1,2.85-3A2.8,2.8,0,0,1,30,35.62a1.08,1.08,0,0,1-.22,1.16.83.83,0,0,1-.68.26.68.68,0,0,1-.51-.26,1,1,0,0,0-.87-.57c-.58,0-1,.43-1,1.13s.37,1.12,1,1.12a1,1,0,0,0,.87-.57.68.68,0,0,1,.51-.26.8.8,0,0,1,.68.26A1.08,1.08,0,0,1,30,39.05,2.8,2.8,0,0,1,27.61,40.37Zm-2.35-3a2.47,2.47,0,0,0,2.35,2.53,2.32,2.32,0,0,0,1.92-1.09.64.64,0,0,0-.17-.55.32.32,0,0,0-.42,0,1.45,1.45,0,0,1-2.72-.84h0a1.47,1.47,0,0,1,1.45-1.62,1.51,1.51,0,0,1,1.29.8.63.63,0,0,0,.17,0,.33.33,0,0,0,.23-.11.6.6,0,0,0,.16-.56,2.29,2.29,0,0,0-1.91-1.08A2.47,2.47,0,0,0,25.26,37.34Z"/><path d="M32.91,40.25h-1a.55.55,0,0,1-.55-.55V36.61a1.28,1.28,0,0,1-1.27-1.23c0-.51.56-.93,1.24-.93h2.18c.68,0,1.24.42,1.24.93a1.23,1.23,0,0,1-1.27,1.24v3.07a.55.55,0,0,1-.16.39A.54.54,0,0,1,32.91,40.25ZM31.31,35c-.43,0-.74.23-.74.43,0,.73.91.75,1,.75a.25.25,0,0,1,.25.25V39.7a.05.05,0,0,0,.05,0h1l.05-.06V36.38a.25.25,0,0,1,.25-.25c.67,0,1-.25,1-.75,0-.2-.31-.43-.74-.43Z"/><path d="M39.11,40.25H35.68a.7.7,0,0,1-.69-.7V35.14a.69.69,0,0,1,.69-.69h3.43a.25.25,0,0,1,.25.25V36a.25.25,0,0,1-.25.25h-2v.08h1a.69.69,0,0,1,.62.36,1.11,1.11,0,0,1,0,1.06.68.68,0,0,1-.61.37h-1v.35h2a.25.25,0,0,1,.25.25V40A.25.25,0,0,1,39.11,40.25ZM35.68,35a.19.19,0,0,0-.19.19v4.41a.2.2,0,0,0,.19.2h3.18V39h-2a.25.25,0,0,1-.25-.25v-.84a.25.25,0,0,1,.24-.25s.63,0,1.27,0a.23.23,0,0,0,.18-.12.65.65,0,0,0,0-.56.22.22,0,0,0-.24-.11l-1.2,0a.22.22,0,0,1-.18-.08.23.23,0,0,1-.08-.17V36a.25.25,0,0,1,.25-.25h2V35Z"/><path d="M40.85,40.18h-.31a.85.85,0,0,1-.84-.85V35.38a.85.85,0,0,1,.84-.84h2.29a1.74,1.74,0,0,1,1.74,1.73v.5a1.74,1.74,0,0,1-1.74,1.74H41.7v.82A.85.85,0,0,1,40.85,40.18ZM40.54,35a.34.34,0,0,0-.34.34v3.95a.35.35,0,0,0,.34.35h.31a.35.35,0,0,0,.35-.35V38.26a.24.24,0,0,1,.08-.19.27.27,0,0,1,.21-.06h1.34a1.25,1.25,0,0,0,1.24-1.24v-.5A1.24,1.24,0,0,0,42.83,35Z"/><path d="M42.49,37.22h-.81a.72.72,0,1,1,0-1.43h.81a.72.72,0,0,1,0,1.43Zm-.81-.93a.22.22,0,1,0,0,.43h.81a.21.21,0,0,0,.21-.21.21.21,0,0,0-.21-.22Z"/></g></g></svg>