<svg width="73" height="70" viewBox="0 0 73 70" fill="none" xmlns="http://www.w3.org/2000/svg">
<g clip-path="url(#clip0_218_546)">
<path d="M40.8872 29.0489C40.8872 26.6111 38.8997 24.6348 36.448 24.6348C33.9963 24.6348 32.0088 26.6111 32.0088 29.0489V45.5339C32.0088 47.9718 33.9963 49.9481 36.448 49.9481C38.8997 49.9481 40.8872 47.9718 40.8872 45.5339V29.0489Z" stroke="#41A92E" stroke-miterlimit="10"/>
<path d="M41.1885 36.4196L46.2853 47.0599C46.5167 47.5595 46.8452 48.0087 47.252 48.3815C47.6588 48.7544 48.1357 49.0435 48.6553 49.2322C49.175 49.4209 49.727 49.5054 50.2797 49.481C50.8323 49.4566 51.3747 49.3237 51.8754 49.0899C52.8691 48.5675 53.6168 47.678 53.9576 46.613C54.2984 45.5479 54.2051 44.3924 53.6977 43.395L50.3957 36.7602L53.4236 30.1389C53.9264 29.1393 54.0158 27.9838 53.6726 26.9195C53.3295 25.8552 52.5812 24.9667 51.5877 24.4441C51.0869 24.2103 50.5446 24.0774 49.9919 24.0529C49.4393 24.0285 48.8872 24.1131 48.3676 24.3018C47.848 24.4905 47.371 24.7796 46.9643 25.1524C46.5575 25.5252 46.229 25.9744 45.9976 26.4741L41.1885 36.4196Z" stroke="#41A92E" stroke-miterlimit="10"/>
<path d="M59.8905 41.7189V31.7053C59.3483 31.7538 58.8019 31.6886 58.2865 31.5139C57.7712 31.3392 57.2985 31.059 56.8989 30.6913C56.4994 30.3235 56.1819 29.8765 55.9669 29.3791C55.752 28.8817 55.6444 28.345 55.6512 27.8037C55.6579 27.2624 55.7788 26.7285 56.0061 26.2365C56.2333 25.7446 56.5619 25.3055 56.9705 24.9478C57.3791 24.59 57.8587 24.3215 58.3782 24.1596C58.8977 23.9976 59.4456 23.9459 59.9864 24.0077H68.5223C69.0518 23.9765 69.5821 24.0532 70.0807 24.2331C70.5793 24.4131 71.0357 24.6925 71.4217 25.0542C71.8077 25.416 72.1153 25.8523 72.3255 26.3366C72.5358 26.8208 72.6442 27.3427 72.6442 27.8701C72.6442 28.3976 72.5358 28.9195 72.3255 29.4037C72.1153 29.8879 71.8077 30.3243 71.4217 30.6861C71.0357 31.0478 70.5793 31.3272 70.0807 31.5072C69.5821 31.6871 69.0518 31.7638 68.5223 31.7325V41.7462C69.0518 41.7149 69.5821 41.7916 70.0807 41.9715C70.5793 42.1515 71.0357 42.4309 71.4217 42.7926C71.8077 43.1544 72.1153 43.5908 72.3255 44.075C72.5358 44.5592 72.6442 45.0811 72.6442 45.6086C72.6442 46.136 72.5358 46.6579 72.3255 47.1421C72.1153 47.6264 71.8077 48.0627 71.4217 48.4245C71.0357 48.7862 70.5793 49.0656 70.0807 49.2456C69.5821 49.4255 69.0518 49.5022 68.5223 49.471H59.8905C59.361 49.5022 58.8307 49.4255 58.3321 49.2456C57.8335 49.0656 57.3772 48.7862 56.9911 48.4245C56.6051 48.0627 56.2975 47.6264 56.0873 47.1421C55.8771 46.6579 55.7686 46.136 55.7686 45.6086C55.7686 45.0811 55.8771 44.5592 56.0873 44.075C56.2975 43.5908 56.6051 43.1544 56.9911 42.7926C57.3772 42.4309 57.8335 42.1515 58.3321 41.9715C58.8307 41.7916 59.361 41.7149 59.8905 41.7462V41.7189Z" stroke="#41A92E" stroke-miterlimit="10"/>
<path d="M26.8297 31.4464C26.2543 30.084 23.9662 25.52 21.3493 24.6344C17.9925 24.6344 16.636 21.9096 11.9091 22.5363C6.42865 23.1903 0.482329 27.9859 0.49603 29.2121C0.317915 31.9369 2.63342 31.9369 4.38717 32.114C7.60695 32.4273 9.2922 29.0758 12.0324 28.4628C12.8751 28.2575 13.7541 28.2496 14.6004 28.4397C15.4466 28.6298 16.2369 29.0127 16.909 29.5582C17.5811 30.1036 18.1167 30.7968 18.4735 31.5832C18.8303 32.3695 18.9986 33.2274 18.9653 34.0895C19.0475 38.3538 16.0058 41.4328 12.4709 41.2965C8.45643 41.1467 6.9904 36.9914 5.35996 34.6208C4.41457 33.2584 1.15369 32.5091 0.00278709 34.9205C-0.106823 42.441 3.01705 46.7461 9.2922 50.084C14.7727 49.9478 14.7727 49.9478 19.4585 50.0023C26.2132 49.1576 29.4741 38.6671 29.6248 36.9369C30.5017 26.3919 26.1584 21.1194 22.6372 16.678C19.2912 12.8545 15.0588 9.8992 10.3061 8.06766C8.49753 7.5227 8.1687 10.3837 9.05928 12.55C10.1965 15.3701 13.4848 16.3783 17.1156 18.9668C18.8282 20.193 18.8967 23.054 19.1434 24.2666" stroke="#41A92E" stroke-miterlimit="10"/>
<path d="M11.9089 22.6452C7.68897 20.7651 4.29107 13.2174 10.1552 14.2392" stroke="#41A92E" stroke-miterlimit="10"/>
<path d="M15.1814 59.5795L16.483 58.6939V61.2416C16.4812 61.3519 16.5015 61.4614 16.5426 61.5638C16.5838 61.6662 16.6451 61.7594 16.7229 61.8381C16.8007 61.9167 16.8934 61.9791 16.9957 62.0217C17.098 62.0644 17.2079 62.0863 17.3188 62.0863H17.8394C17.9503 62.0863 18.0602 62.0644 18.1625 62.0217C18.2648 61.9791 18.3575 61.9167 18.4353 61.8381C18.5131 61.7594 18.5744 61.6662 18.6156 61.5638C18.6567 61.4614 18.677 61.3519 18.6752 61.2416V55.5604C18.5835 55.3988 18.4554 55.2605 18.3008 55.1565C18.1463 55.0524 17.9696 54.9855 17.7846 54.9609C16.7448 55.3786 15.8431 56.077 15.1814 56.9773C14.5271 56.0754 13.6293 55.3763 12.5919 54.9609C12.4069 54.9855 12.2302 55.0524 12.0756 55.1565C11.9211 55.2605 11.7929 55.3988 11.7013 55.5604V61.2416C11.6995 61.3519 11.7197 61.4614 11.7609 61.5638C11.8021 61.6662 11.8634 61.7594 11.9412 61.8381C12.019 61.9167 12.1117 61.9791 12.214 62.0217C12.3163 62.0644 12.4261 62.0863 12.5371 62.0863H13.044C13.2693 62.0863 13.4854 61.9973 13.6447 61.8389C13.804 61.6805 13.8935 61.4656 13.8935 61.2416V58.6939L15.1814 59.5795Z" stroke="#41A92E" stroke-linecap="round" stroke-linejoin="round"/>
<path d="M22.3747 60.9564H23.4845L24.8546 62.1826L25.8959 61.4469C26.0025 61.3223 26.0697 61.1693 26.0892 61.0069C26.1087 60.8446 26.0796 60.6801 26.0055 60.5341L23.8544 55.0845C23.6489 54.703 22.3336 54.6758 22.1281 55.0845L19.8811 60.5341C19.807 60.6801 19.7779 60.8446 19.7974 61.0069C19.8169 61.1693 19.8841 61.3223 19.9907 61.4469L21.0046 62.1553L22.3747 60.9292" stroke="#41A92E" stroke-linecap="round" stroke-linejoin="round"/>
<path d="M22.9776 57.7002L22.2651 59.5258H23.6764L22.9776 57.7002Z" stroke="#41A92E" stroke-linecap="round" stroke-linejoin="round"/>
<path d="M31.2119 58.8171V60.7926C31.2137 60.9518 31.247 61.1091 31.3099 61.2556C31.3728 61.402 31.4642 61.5346 31.5787 61.646C31.6932 61.7573 31.8286 61.8451 31.9773 61.9044C32.1259 61.9637 32.2848 61.9933 32.445 61.9915C32.6033 61.9915 32.7601 61.9605 32.9064 61.9002C33.0527 61.84 33.1856 61.7516 33.2975 61.6403C33.4095 61.529 33.4983 61.3968 33.5589 61.2514C33.6195 61.1059 33.6507 60.95 33.6507 60.7926V56.3103C33.6507 56.1528 33.6195 55.9969 33.5589 55.8515C33.4983 55.706 33.4095 55.5738 33.2975 55.4625C33.1856 55.3512 33.0527 55.2629 32.9064 55.2026C32.7601 55.1424 32.6033 55.1114 32.445 55.1114C32.2848 55.1096 32.1259 55.1391 31.9773 55.1984C31.8286 55.2577 31.6932 55.3455 31.5787 55.4568C31.4642 55.5682 31.3728 55.7008 31.3099 55.8473C31.247 55.9937 31.2137 56.151 31.2119 56.3103L29.554 58.4629V56.2966C29.5559 56.1387 29.5259 55.982 29.466 55.8357C29.406 55.6894 29.3173 55.5565 29.205 55.4448C29.0926 55.3331 28.959 55.2449 28.8119 55.1853C28.6648 55.1257 28.5072 55.0959 28.3483 55.0977C28.1888 55.0959 28.0306 55.1256 27.8827 55.1851C27.7348 55.2445 27.6003 55.3325 27.4869 55.444C27.3735 55.5555 27.2834 55.6883 27.222 55.8347C27.1605 55.981 27.1289 56.1381 27.1289 56.2966V60.7926C27.1289 60.9512 27.1605 61.1082 27.222 61.2545C27.2834 61.4009 27.3735 61.5337 27.4869 61.6452C27.6003 61.7567 27.7348 61.8447 27.8827 61.9041C28.0306 61.9636 28.1888 61.9933 28.3483 61.9915C28.5072 61.9933 28.6648 61.9635 28.8119 61.9039C28.959 61.8443 29.0926 61.7561 29.205 61.6444C29.3173 61.5327 29.406 61.3998 29.466 61.2535C29.5259 61.1072 29.5559 60.9505 29.554 60.7926L31.2119 58.8171Z" stroke="#41A92E" stroke-linecap="round" stroke-linejoin="round"/>
<path d="M31.7329 52.3867C31.7175 52.5498 31.6697 52.7083 31.5924 52.8529C31.515 52.9976 31.4095 53.1255 31.2821 53.2294C31.1547 53.3333 31.0079 53.411 30.8501 53.4581C30.6923 53.5053 30.5267 53.5208 30.3628 53.5039C30.1986 53.5227 30.0323 53.5085 29.8737 53.4621C29.7151 53.4158 29.5675 53.3382 29.4397 53.2339C29.3119 53.1297 29.2065 53.001 29.1297 52.8555C29.0529 52.7099 29.0063 52.5505 28.9927 52.3867H27.8555C27.9113 53.0062 28.2098 53.5791 28.6865 53.9818C29.1633 54.3844 29.78 54.5847 30.4039 54.5393C31.0277 54.5847 31.6445 54.3844 32.1213 53.9818C32.598 53.5791 32.8965 53.0062 32.9523 52.3867H31.7329Z" stroke="#41A92E" stroke-linecap="round" stroke-linejoin="round"/>
<path d="M34.7058 58.5851C34.6686 57.6053 35.022 56.6505 35.6891 55.9284C36.3562 55.2064 37.2831 54.7755 38.2681 54.7295C38.8546 54.7386 39.4294 54.8944 39.9394 55.1825C40.4494 55.4706 40.8783 55.8817 41.1865 56.378C41.2535 56.5773 41.2634 56.7912 41.215 56.9957C41.1666 57.2003 41.0618 57.3874 40.9124 57.536C40.7687 57.6783 40.5741 57.7582 40.3712 57.7582C40.1684 57.7582 39.9738 57.6783 39.83 57.536C39.6776 57.2843 39.4628 57.0758 39.2061 56.9302C38.9494 56.7847 38.6595 56.7072 38.364 56.705C38.1278 56.7089 37.895 56.7623 37.6808 56.8615C37.4667 56.9607 37.2759 57.1036 37.1208 57.2809C36.9658 57.4582 36.85 57.6659 36.7809 57.8906C36.7118 58.1153 36.691 58.3519 36.7199 58.5851C36.691 58.8183 36.7118 59.0549 36.7809 59.2796C36.85 59.5042 36.9658 59.712 37.1208 59.8893C37.2759 60.0666 37.4667 60.2095 37.6808 60.3087C37.895 60.4079 38.1278 60.4612 38.364 60.4652C38.6829 60.4456 38.99 60.3385 39.2512 60.1557C39.5125 59.9729 39.7176 59.7216 39.8437 59.4298C39.9875 59.2875 40.1821 59.2076 40.3849 59.2076C40.5878 59.2076 40.7824 59.2875 40.9261 59.4298C41.0755 59.5784 41.1803 59.7655 41.2287 59.9701C41.2771 60.1746 41.2672 60.3885 41.2002 60.5878C40.892 61.0841 40.4631 61.4952 39.9531 61.7833C39.4431 62.0714 38.8683 62.2272 38.2818 62.2363C37.309 62.1939 36.3912 61.7759 35.7234 61.0712C35.0557 60.3665 34.6906 59.4306 34.7058 58.4625" stroke="#41A92E" stroke-linecap="round" stroke-linejoin="round"/>
<path d="M45.9548 61.7329V57.2234C46.6947 57.2234 47.6948 56.9918 47.6948 55.861C47.6948 55.3569 47.0783 54.9346 46.3247 54.9346H43.3516C42.6117 54.9346 41.9814 55.3569 41.9814 55.861C41.9814 56.8692 42.9679 57.2234 43.7215 57.2234V61.7466C43.7249 61.8539 43.7693 61.9559 43.8457 62.0318C43.922 62.1077 44.0246 62.1519 44.1325 62.1553H45.5027C45.5607 62.159 45.6189 62.1508 45.6736 62.1313C45.7284 62.1118 45.7785 62.0812 45.8209 62.0416C45.8633 62.002 45.897 61.9542 45.9201 61.9011C45.9431 61.848 45.9549 61.7908 45.9548 61.7329Z" stroke="#41A92E" stroke-linecap="round" stroke-linejoin="round"/>
<path d="M54.0382 56.7057V54.9346H49.3387C49.1788 54.9346 49.0255 54.9977 48.9124 55.1101C48.7994 55.2226 48.7358 55.375 48.7358 55.534V61.5422C48.7358 61.7025 48.7989 61.8564 48.9116 61.971C49.0242 62.0856 49.1776 62.1517 49.3387 62.1553H54.0382V60.3842H50.9417V59.2534H52.6681C53.545 59.2534 53.6135 57.4959 52.6681 57.4959H50.9417V56.7057H54.0382Z" stroke="#41A92E" stroke-linecap="round" stroke-linejoin="round"/>
<path d="M59.135 55.0568H55.9975C55.8908 55.0549 55.7848 55.0744 55.6859 55.1142C55.587 55.1539 55.4972 55.2131 55.4217 55.2881C55.3463 55.3631 55.2868 55.4524 55.2468 55.5508C55.2069 55.6492 55.1872 55.7545 55.1891 55.8606V61.242C55.1873 61.3487 55.2068 61.4547 55.2466 61.5538C55.2864 61.6529 55.3457 61.7432 55.421 61.8193C55.4962 61.8953 55.5859 61.9558 55.6849 61.997C55.7839 62.0383 55.8901 62.0595 55.9975 62.0595H56.4222C56.6402 62.0595 56.8493 61.9734 57.0035 61.8201C57.1577 61.6668 57.2443 61.4588 57.2443 61.242V59.7843C57.3402 59.7843 59.135 59.7843 59.135 59.7843C59.6765 59.7843 60.1957 59.5704 60.5786 59.1897C60.9614 58.809 61.1765 58.2927 61.1765 57.7543V57.0731C61.1729 56.5371 60.9562 56.0243 60.5738 55.6465C60.1913 55.2687 59.6741 55.0567 59.135 55.0568Z" stroke="#41A92E" stroke-linecap="round" stroke-linejoin="round"/>
<path d="M58.6693 56.7598H57.5458C57.1977 56.7598 56.9155 57.0403 56.9155 57.3865V57.4001C56.9155 57.7462 57.1977 58.0268 57.5458 58.0268H58.6693C59.0174 58.0268 59.2995 57.7462 59.2995 57.4001V57.3865C59.2995 57.0403 59.0174 56.7598 58.6693 56.7598Z" stroke="#41A92E" stroke-linecap="round" stroke-linejoin="round"/>
</g>
<defs>
<clipPath id="clip0_218_546">
<rect width="73" height="55" fill="white" transform="translate(0 7.5)"/>
</clipPath>
</defs>
</svg>
