<svg width="30" height="30" viewBox="0 0 30 30" fill="none" xmlns="http://www.w3.org/2000/svg">
<path d="M6.25009 24.0625C6.25009 24.5803 6.66982 25 7.18759 25L23.4376 25C23.9554 25 24.3751 24.5803 24.3751 24.0625C24.3751 23.5447 23.9554 23.125 23.4376 23.125L7.18759 23.125C6.93792 23.1216 6.69748 23.2193 6.52093 23.3958C6.34437 23.5724 6.24669 23.8128 6.25009 24.0625Z" fill="#245D19"/>
<path d="M6.25009 15.3125C6.25009 15.8303 6.66982 16.25 7.18759 16.25L23.4376 16.25C23.9554 16.25 24.3751 15.8303 24.3751 15.3125C24.3751 14.7947 23.9554 14.375 23.4376 14.375L7.18759 14.375C6.93792 14.3716 6.69748 14.4693 6.52093 14.6458C6.34437 14.8224 6.24669 15.0628 6.25009 15.3125Z" fill="#245D19"/>
<path d="M6.25009 6.5625C6.25009 7.08027 6.66982 7.5 7.18759 7.5L23.4376 7.5C23.9554 7.5 24.3751 7.08027 24.3751 6.5625C24.3751 6.04473 23.9554 5.625 23.4376 5.625L7.18759 5.625C6.93792 5.6216 6.69748 5.71928 6.52093 5.89584C6.34437 6.0724 6.24669 6.31283 6.25009 6.5625Z" fill="#245D19"/>
</svg>
