<svg width="30" height="30" viewBox="0 0 30 30" fill="none" xmlns="http://www.w3.org/2000/svg">
<path d="M15.0625 13.7H11.1625C10.6447 13.7 10.225 13.2803 10.225 12.7625C10.225 12.2447 10.6447 11.825 11.1625 11.825H15.0625C15.5803 11.825 16 12.2447 16 12.7625C16 13.2803 15.5803 13.7 15.0625 13.7Z" />
<path d="M11.1625 15.7125H18.8375C19.3553 15.7125 19.775 16.1322 19.775 16.65C19.775 17.1678 19.3553 17.5875 18.8375 17.5875H11.1625C10.6447 17.5875 10.225 17.1678 10.225 16.65C10.225 16.1322 10.6447 15.7125 11.1625 15.7125Z" />
<path d="M17.7875 19.375H11.1625C10.6447 19.375 10.225 19.7947 10.225 20.3125C10.225 20.8303 10.6447 21.25 11.1625 21.25H17.7875C18.3053 21.25 18.725 20.8303 18.725 20.3125C18.725 19.7947 18.3053 19.375 17.7875 19.375Z" />
<path fill-rule="evenodd" clip-rule="evenodd" d="M17.8375 2.5C18.849 2.4986 19.6843 3.28991 19.7375 4.30001C22.7061 4.63379 24.962 7.1254 25 10.1125V22.725C24.9931 26.0013 22.3388 28.6556 19.0625 28.6625H10.9375C7.66116 28.6556 5.00688 26.0013 5 22.725V10.1125C5.03802 7.1254 7.29385 4.63379 10.2625 4.30001C10.3218 3.29274 11.1535 2.50485 12.1625 2.5H17.8375ZM17.8625 4.30001H12.1625V5.78751H17.8625V4.30001ZM23.125 22.725C23.125 24.9707 21.3082 26.7931 19.0625 26.8H10.9375C8.69182 26.7931 6.87499 24.9707 6.875 22.725V10.1125C6.87997 8.12359 8.3242 6.43073 10.2875 6.11251C10.4409 7.0267 11.2355 7.69416 12.1625 7.68751H17.8375C18.7645 7.69416 19.559 7.0267 19.7125 6.11251C21.6758 6.43073 23.12 8.12359 23.125 10.1125V22.725Z" />
</svg>
