<svg viewBox="0 0 20 20"  xmlns="http://www.w3.org/2000/svg">
<path fill-rule="evenodd" clip-rule="evenodd" d="M13.8653 1.6667H6.96806C5.89951 1.65161 5.01978 2.5031 5 3.57156V16.9146C5.01978 17.9831 5.89951 18.8346 6.96806 18.8195H13.8653C14.9338 18.8346 15.8136 17.9831 15.8333 16.9146V3.57156C15.8136 2.5031 14.9338 1.65161 13.8653 1.6667ZM9.28819 3.02087H11.5451V3.47226C11.5451 3.5969 11.4441 3.69795 11.3194 3.69795H9.51389C9.38924 3.69795 9.28819 3.5969 9.28819 3.47226V3.02087ZM13.8653 17.4653C14.1861 17.4807 14.4598 17.2353 14.4792 16.9146V3.57156C14.4598 3.25091 14.1861 3.00546 13.8653 3.02087H12.8993V3.47226C12.8993 3.89126 12.7329 4.29311 12.4366 4.58939C12.1403 4.88567 11.7384 5.05212 11.3194 5.05212H9.51389C8.64136 5.05212 7.93403 4.34479 7.93403 3.47226V3.02087H6.96806C6.64719 3.00546 6.37357 3.25091 6.35417 3.57156V16.9146C6.37357 17.2353 6.64719 17.4807 6.96806 17.4653H13.8653Z"/>
</svg>
