<svg width="38" height="38" viewBox="0 0 38 38" fill="none" xmlns="http://www.w3.org/2000/svg">
<path d="M31.2708 17.4167H19.7917V5.9375C19.7917 5.28166 19.26 4.75 18.6042 4.75C17.9483 4.75 17.4167 5.28166 17.4167 5.9375V17.4167H5.9375C5.28166 17.4167 4.75 17.9483 4.75 18.6042C4.75 19.26 5.28166 19.7917 5.9375 19.7917H17.4167V31.2708C17.4167 31.9267 17.9483 32.4583 18.6042 32.4583C19.26 32.4583 19.7917 31.9267 19.7917 31.2708V19.7917H31.2708C31.9267 19.7917 32.4583 19.26 32.4583 18.6042C32.4583 17.9483 31.9267 17.4167 31.2708 17.4167Z" />
</svg>
