<svg viewBox="0 0 24 16" fill="none" xmlns="http://www.w3.org/2000/svg">
<path d="M0 11.0078C0 6.15384 2.9823 1.71478 9.29603 0C10.7654 0.719101 11.3618 2.32325 11.2018 3.71996C9.45606 4.23163 6.63379 5.73898 6.53196 8.10372C7.44847 8.25583 8.48136 8.46327 9.03417 8.87813C9.35422 9.55575 9.63063 10.8971 9.63063 11.9205C9.63063 12.9023 9.41242 14.3959 9.03417 15.0735C8.05947 15.5851 6.27009 16 4.84441 16C3.43328 16 1.6439 15.6404 0.65465 15.0735C0.160025 13.6906 0 12.446 0 11.0078ZM12.773 11.0078C12.773 6.15384 15.7552 1.71478 22.069 0C23.5383 0.719101 24.1348 2.32325 23.9747 3.71996C22.229 4.23163 19.4067 5.73898 19.3049 8.10372C20.2214 8.25583 21.2543 8.46327 21.8071 8.87813C22.1272 9.55575 22.4036 10.8971 22.4036 11.9205C22.4036 12.9023 22.1854 14.3959 21.8071 15.0735C20.8324 15.5851 19.0285 16 17.6174 16C16.2062 16 14.4169 15.6404 13.4276 15.0735C12.933 13.6906 12.773 12.446 12.773 11.0078Z" fill="#BCEA8F"/>
</svg>
