<svg width="77" height="77" viewBox="0 0 77 77" fill="none" xmlns="http://www.w3.org/2000/svg">
<circle cx="38.5" cy="38.5" r="38.5" fill="#41A92E"/>
<path d="M67.124 30.9879C68.2038 30.7187 69.3043 31.3751 69.5028 32.4701C70.2189 36.4202 70.1621 40.4785 69.3282 44.4185C68.3551 49.0168 66.3491 53.3336 63.462 57.0424C60.5748 60.7512 56.8821 63.755 52.6632 65.8266C48.4442 67.8981 43.8094 68.9832 39.1094 68.9998C34.4093 69.0164 29.767 67.964 25.5335 65.9223C21.3 63.8805 17.5862 60.9029 14.673 57.2145C11.7598 53.5261 9.72337 49.2236 8.7178 44.6324C7.85617 40.6983 7.77071 36.6405 8.45895 32.6854C8.64974 31.5891 9.74553 30.9249 10.8272 31.1865C11.9089 31.4481 12.5658 32.5364 12.3856 33.6346C11.8347 36.9937 11.9236 40.4331 12.6545 43.7701C13.5293 47.7646 15.301 51.5077 17.8355 54.7166C20.37 57.9255 23.601 60.5161 27.2841 62.2924C30.9673 64.0687 35.0061 64.9843 39.0951 64.9698C43.1842 64.9554 47.2165 64.0114 50.887 62.2091C54.5575 60.4068 57.7701 57.7936 60.2819 54.5669C62.7937 51.3402 64.5389 47.5846 65.3856 43.5841C66.0929 40.242 66.1576 36.8021 65.5829 33.4469C65.395 32.3501 66.0442 31.2571 67.124 30.9879Z" fill="#FEFEFE"/>
<path d="M32.2561 50.4372C31.8503 50.4549 31.4503 50.3358 31.1203 50.0989L20.2694 41.1331C19.5703 40.5141 19.4651 39.4615 20.0278 38.7164C20.6456 38.0206 21.6901 37.9057 22.4444 38.4506L32.1111 46.3289L57.4861 22.8631C58.2365 22.2997 59.2928 22.4022 59.9209 23.0994C60.549 23.7965 60.5411 24.8578 59.9028 25.5456L33.4886 49.9539C33.1521 50.2626 32.7127 50.435 32.2561 50.4372Z" fill="#FEFEFE"/>
</svg>
