<svg width="77" height="77" viewBox="0 0 77 77" fill="none" xmlns="http://www.w3.org/2000/svg">
<circle cx="38.5" cy="38.5" r="38.5" />
<path d="M8 38C8 20.8792 21.8792 7 39 7C56.1208 7 70 20.8792 70 38C70 55.1208 56.1208 69 39 69C21.8792 69 8 55.1208 8 38ZM65.97 38C65.97 23.1049 53.8951 11.03 39 11.03C24.1049 11.03 12.03 23.1049 12.03 38C12.03 52.8951 24.1049 64.97 39 64.97C53.8951 64.97 65.97 52.8951 65.97 38Z" fill="#FEFEFE"/>
<path d="M32.2561 50.4372C31.8503 50.4549 31.4503 50.3358 31.1203 50.0989L20.2694 41.1331C19.5703 40.5141 19.4651 39.4615 20.0278 38.7164C20.6456 38.0206 21.6901 37.9057 22.4444 38.4506L32.1111 46.3289L57.4861 22.8631C58.2365 22.2997 59.2928 22.4022 59.9209 23.0994C60.549 23.7965 60.5411 24.8578 59.9028 25.5456L33.4886 49.9539C33.1521 50.2626 32.7127 50.435 32.2561 50.4372Z" fill="#FEFEFE"/>
</svg>
