<svg width="77" height="77" viewBox="0 0 77 77" fill="none" xmlns="http://www.w3.org/2000/svg">
<circle cx="38.5" cy="38.5" r="38.5" />
<path d="M67.124 30.9879C68.2038 30.7187 69.3043 31.3751 69.5028 32.4701C70.2166 36.4073 70.1625 40.452 69.3363 44.3801C68.3717 48.9667 66.3797 53.2748 63.5101 56.9804C60.6404 60.6861 56.9679 63.6928 52.7687 65.7745C49.1723 67.5574 45.2697 68.6219 41.2792 68.9161C40.1694 68.9979 39.2585 68.0967 39.2489 66.9839C39.2394 65.8711 40.1351 64.9691 41.2441 64.8765C44.6249 64.5942 47.9284 63.676 50.9788 62.1638C54.6321 60.3528 57.8272 57.7369 60.3238 54.513C62.8203 51.2891 64.5534 47.541 65.3926 43.5507C66.0933 40.219 66.1556 36.7908 65.5829 33.4469C65.395 32.3501 66.0442 31.2571 67.124 30.9879Z" fill="#FEFEFE"/>
<path d="M32.2561 50.4372C31.8503 50.4549 31.4503 50.3358 31.1203 50.0989L20.2694 41.1331C19.5703 40.5141 19.4651 39.4615 20.0278 38.7164C20.6456 38.0206 21.6901 37.9057 22.4444 38.4506L32.1111 46.3289L57.4861 22.8631C58.2365 22.2997 59.2928 22.4022 59.9209 23.0994C60.549 23.7965 60.5411 24.8578 59.9028 25.5456L33.4886 49.9539C33.1521 50.2626 32.7127 50.435 32.2561 50.4372Z" fill="#FEFEFE"/>
</svg>
